<?xml version="1.0" encoding="utf-8"?>
<svg color="#000000" id="Layer_1" style="enable-background:new 0 0 314.1 100;" version="1.1" viewBox="0 0 314.1 100" x="0px" xml:space="preserve" xmlns="http://www.w3.org/2000/svg" xmlns:graph="ns_graphs;" xmlns:i="ns_ai;" xmlns:x="ns_extend;" xmlns:xlink="http://www.w3.org/1999/xlink" y="0px"><style>* { fill: #000000 !important; stroke: #000000 !important; color: #000000 !important; }</style>
<style type="text/css">
  .st0{fill:#FFFFFF;}
	.st1{fill:none;}
 </style>
<metadata>
<sfw xmlns="ns_sfw;">
<slices>
</slices>
<sliceSourceBounds bottomLeftOrigin="true" height="100" width="314.1" x="-125.6" y="0">
</sliceSourceBounds>
</sfw>
</metadata>
<g fill="#000000">
<path class="st0" d="M164.5,85h-4.3l-0.9,2.5h-1.8l4.1-11.4h1.4l4.1,11.4h-1.8C165.4,87.6,164.5,85,164.5,85z M164,83.5l-1.7-5h0   l-1.6,5H164L164,83.5z M172.3,76.2h4.4c0.9,0,1.7,0.3,2.3,0.8c0.7,0.6,1.1,1.4,1.1,2.4c0,1.6-0.8,2.6-2.2,3.2l2.6,5.1h-2.1   l-2.3-4.9H174v4.9h-1.7L172.3,76.2L172.3,76.2z M174,81.2h2.6c0.6,0,1.1-0.2,1.5-0.6c0.3-0.3,0.5-0.8,0.5-1.3c0-0.6-0.2-1-0.6-1.3   c-0.3-0.2-0.7-0.4-1.3-0.4H174L174,81.2C174,81.2,174,81.2,174,81.2z M183.1,84.2c0,0.7,0.2,1.1,0.6,1.5c0.3,0.3,0.8,0.5,1.4,0.5   c0.7,0,1.3-0.3,1.8-0.8l1.2,1c-0.8,0.9-1.8,1.3-2.9,1.3c-0.4,0-0.8-0.1-1.3-0.2c-0.2-0.1-0.4-0.2-0.6-0.3c-0.2-0.1-0.4-0.2-0.6-0.4   c-0.3-0.3-0.6-0.7-0.8-1.3c-0.2-0.5-0.4-1.2-0.4-2c0-0.8,0.1-1.5,0.3-2c0.2-0.5,0.4-0.9,0.8-1.3c0.3-0.3,0.7-0.6,1.1-0.7   c1.2-0.4,2.6-0.2,3.5,0.7c0.6,0.6,1,1.4,1,2.5v1.3C188.2,84.2,183.1,84.2,183.1,84.2z M186.6,82.8c0-0.6-0.2-1.1-0.5-1.4   c-0.3-0.3-0.8-0.5-1.2-0.5c-0.4,0-0.9,0.2-1.2,0.5c-0.3,0.3-0.5,0.8-0.5,1.4H186.6z M194.2,86.9L194.2,86.9   c-0.2,0.3-0.4,0.5-0.7,0.6c-0.3,0.1-0.7,0.2-1.3,0.2c-0.9,0-1.6-0.3-2.1-0.7c-0.5-0.4-0.8-1.1-0.8-1.8c0-0.7,0.2-1.2,0.7-1.7   c0.4-0.5,1.1-0.7,2-0.7h2.3V82c0-0.7-0.5-1.1-1.7-1c-0.4,0-0.7,0-1,0.1c-0.2,0.1-0.4,0.3-0.6,0.5l-1.3-1c0.6-0.8,1.5-1.2,2.7-1.2   c1,0,1.8,0.2,2.4,0.6c0.6,0.4,0.9,1.1,0.9,2.1v5.5h-1.6C194.2,87.6,194.2,86.9,194.2,86.9z M194.2,84.2h-2c-0.9,0-1.4,0.3-1.4,1   c0,0.3,0.1,0.5,0.4,0.7c0.2,0.2,0.6,0.3,1.2,0.3c0.7,0,1.2-0.1,1.4-0.2c0.3-0.2,0.4-0.6,0.4-1.2L194.2,84.2   C194.2,84.2,194.2,84.2,194.2,84.2z M197.9,76.2h1.6v9.3c0,0.4,0.2,0.6,0.6,0.6h0.6v1.5H200c-0.6,0-1.1-0.2-1.5-0.4   c-0.4-0.3-0.6-0.8-0.6-1.5C197.9,85.6,197.9,76.2,197.9,76.2z M202.2,76.2h4.1c0.4,0,0.9,0,1.3,0.1c0.4,0.1,0.8,0.3,1.3,0.7   c0.4,0.3,0.7,0.6,0.9,1.1c0.2,0.5,0.4,1,0.4,1.6c0,0.8-0.3,1.6-0.9,2.3c-0.6,0.7-1.5,1.1-2.7,1.1h-2.6v4.4h-1.7   C202.2,87.6,202.2,76.2,202.2,76.2z M203.9,81.5h2.6c0.6,0,1.1-0.2,1.4-0.6c0.3-0.4,0.5-0.8,0.5-1.3c0-0.4-0.1-0.7-0.2-1   c-0.1-0.2-0.3-0.4-0.5-0.6c-0.4-0.2-0.8-0.3-1.2-0.3h-2.5L203.9,81.5L203.9,81.5L203.9,81.5z M215.4,86.9L215.4,86.9   c-0.2,0.3-0.4,0.5-0.7,0.6c-0.3,0.1-0.7,0.2-1.3,0.2c-0.9,0-1.6-0.3-2.1-0.7c-0.5-0.4-0.8-1.1-0.8-1.8c0-0.7,0.2-1.2,0.7-1.7   c0.4-0.5,1.1-0.7,2-0.7h2.3V82c0-0.7-0.5-1.1-1.7-1c-0.4,0-0.7,0-1,0.1c-0.2,0.1-0.4,0.3-0.6,0.5l-1.3-1c0.6-0.8,1.5-1.2,2.7-1.2   c1,0,1.8,0.2,2.4,0.6c0.6,0.4,0.9,1.1,0.9,2.1v5.5h-1.6C215.4,87.6,215.4,86.9,215.4,86.9z M215.4,84.2h-2c-0.9,0-1.4,0.3-1.4,1   c0,0.3,0.1,0.5,0.4,0.7c0.2,0.2,0.6,0.3,1.2,0.3c0.7,0,1.2-0.1,1.4-0.2c0.3-0.2,0.4-0.6,0.4-1.2L215.4,84.2   C215.4,84.2,215.4,84.2,215.4,84.2z M223.7,86.7c-0.5,0.6-1.2,0.9-2.1,0.9c-0.5,0-1-0.1-1.3-0.3c-0.3-0.2-0.6-0.4-0.8-0.7   c-0.2-0.3-0.4-0.6-0.5-1c-0.1-0.4-0.1-1.1-0.1-2.2c0-1.1,0-1.8,0.1-2.2c0.1-0.4,0.2-0.7,0.5-1c0.2-0.3,0.5-0.5,0.8-0.7   c0.4-0.2,0.8-0.3,1.3-0.3c0.8,0,1.5,0.3,2.1,1v-0.9h1.6v7.9c0,1.2-0.4,2.1-1.1,2.7c-0.7,0.6-1.5,0.9-2.5,0.9c-1.1,0-2-0.5-2.8-1.4   l1.3-1c0.2,0.2,0.4,0.4,0.7,0.5c0.3,0.1,0.6,0.2,0.9,0.2c0.6,0,1-0.2,1.3-0.5c0.3-0.3,0.5-0.7,0.5-1.3L223.7,86.7L223.7,86.7   L223.7,86.7z M220.5,83.6c0,0.6,0,1.1,0.1,1.3c0,0.2,0.1,0.4,0.3,0.6c0.1,0.2,0.3,0.3,0.5,0.4c0.2,0.2,0.5,0.2,0.8,0.2   c0.3,0,0.6-0.1,0.8-0.2c0.2-0.1,0.4-0.2,0.5-0.4c0.1-0.2,0.2-0.4,0.3-0.6c0-0.2,0-0.7,0-1.3c0-0.6,0-1.1,0-1.3   c0-0.2-0.1-0.4-0.3-0.6c-0.1-0.2-0.3-0.3-0.5-0.4c-0.2-0.1-0.5-0.2-0.8-0.2c-0.3,0-0.6,0.1-0.8,0.2c-0.2,0.1-0.4,0.3-0.5,0.4   c-0.1,0.2-0.2,0.4-0.3,0.6C220.5,82.5,220.5,82.9,220.5,83.6z M228.7,84.2c0,0.7,0.2,1.1,0.6,1.5c0.3,0.3,0.8,0.5,1.4,0.5   c0.7,0,1.3-0.3,1.8-0.8l1.2,1c-0.8,0.9-1.8,1.3-2.9,1.3c-0.4,0-0.8-0.1-1.3-0.2c-0.2-0.1-0.4-0.2-0.6-0.3c-0.2-0.1-0.4-0.2-0.6-0.4   c-0.3-0.3-0.6-0.7-0.8-1.3c-0.2-0.5-0.4-1.2-0.4-2c0-0.8,0.1-1.5,0.3-2c0.2-0.5,0.4-0.9,0.8-1.3c0.3-0.3,0.7-0.6,1.1-0.7   c1.2-0.4,2.6-0.2,3.5,0.7c0.6,0.6,1,1.4,1,2.5v1.3L228.7,84.2L228.7,84.2z M232.1,82.8c0-0.6-0.2-1.1-0.5-1.4   c-0.3-0.3-0.8-0.5-1.2-0.5c-0.4,0-0.9,0.1-1.2,0.5c-0.3,0.3-0.5,0.8-0.5,1.4H232.1z M247.1,84.4c-0.2,1.1-0.7,1.9-1.4,2.4   c-0.7,0.6-1.6,0.8-2.6,0.8c-0.9,0-1.6-0.2-2.2-0.7c-0.6-0.4-1.1-0.9-1.3-1.4c-0.1-0.2-0.2-0.3-0.2-0.5c-0.1-0.2-0.1-0.4-0.2-0.6   c-0.1-0.5-0.1-1.3-0.1-2.6c0-1.3,0-2.2,0.1-2.7c0.1-0.4,0.2-0.8,0.4-1.1c0.3-0.5,0.7-1,1.3-1.4c0.6-0.4,1.3-0.6,2.2-0.6   c1.1,0,2,0.3,2.7,1c0.7,0.6,1.1,1.4,1.3,2.4h-1.8c-0.1-0.5-0.4-0.9-0.8-1.2c-0.4-0.3-0.9-0.5-1.4-0.5c-0.4,0-0.7,0.1-1.1,0.2   c-0.3,0.1-0.5,0.3-0.7,0.6c-0.2,0.3-0.4,0.6-0.4,0.9c-0.1,0.4-0.1,1.2-0.1,2.3c0,1.1,0,1.9,0.1,2.3c0.1,0.4,0.2,0.7,0.4,1   c0.2,0.2,0.4,0.4,0.7,0.6c0.3,0.2,0.6,0.3,1.1,0.3c1,0,1.7-0.5,2.2-1.6L247.1,84.4C247.1,84.4,247.1,84.4,247.1,84.4z M247.8,83.5   c0-0.9,0.1-1.5,0.2-2c0.1-0.4,0.4-0.8,0.7-1.1c0.2-0.3,0.5-0.5,0.9-0.7c0.4-0.2,0.9-0.3,1.5-0.3c0.6,0,1.2,0.1,1.6,0.3   c0.4,0.2,0.7,0.5,0.9,0.7c0.3,0.3,0.6,0.7,0.7,1.1c0.1,0.5,0.2,1.1,0.2,2c0,0.9-0.1,1.5-0.2,2c-0.1,0.4-0.4,0.8-0.7,1.2   c-0.1,0.1-0.2,0.3-0.4,0.4c-0.2,0.1-0.3,0.3-0.5,0.3c-0.4,0.2-0.9,0.3-1.6,0.4c-0.6,0-1.1-0.1-1.5-0.4c-0.8-0.4-1.4-1-1.6-1.9   C247.8,85,247.8,84.4,247.8,83.5z M252.8,83.6c0-0.6,0-1-0.1-1.3c0-0.2-0.2-0.5-0.3-0.7c-0.1-0.2-0.3-0.3-0.5-0.4   c-0.2-0.1-0.5-0.2-0.8-0.2c-0.3,0-0.5,0.1-0.8,0.2c-0.2,0.1-0.4,0.2-0.6,0.4c-0.1,0.2-0.2,0.4-0.3,0.7c-0.1,0.3-0.1,0.7-0.1,1.3   c0,0.6,0,1,0.1,1.2c0.1,0.3,0.2,0.5,0.3,0.7c0.1,0.2,0.3,0.3,0.6,0.4c0.2,0.1,0.5,0.2,0.8,0.2c0.3,0,0.6-0.1,0.8-0.2   c0.2-0.1,0.4-0.2,0.5-0.4c0.2-0.2,0.3-0.4,0.3-0.7C252.8,84.5,252.8,84.1,252.8,83.6z M256.3,79.5h1.6v0.9h0c0.5-0.6,1.2-1,2.1-1   c0.6,0,1,0.1,1.4,0.3c0.3,0.2,0.6,0.5,0.9,0.8c0.6-0.7,1.5-1.1,2.6-1.1c0.7,0,1.3,0.2,1.8,0.7c0.6,0.5,0.8,1.2,0.9,2.1v5.4H266   v-4.8c0-0.6-0.1-1-0.4-1.3c-0.3-0.3-0.7-0.5-1.2-0.5c-0.4,0-0.9,0.1-1.2,0.5c-0.3,0.3-0.5,0.7-0.5,1.3v4.8h-1.6v-4.8   c0-0.6-0.1-1-0.4-1.3c-0.3-0.3-0.7-0.5-1.2-0.5c-0.4,0-0.8,0.1-1.2,0.5c-0.3,0.3-0.5,0.7-0.5,1.3v4.8h-1.6L256.3,79.5   C256.3,79.5,256.3,79.5,256.3,79.5z M269.8,79.5h1.6v0.8c0.5-0.6,1.2-0.9,2.1-0.9c1,0,1.7,0.4,2.2,1.1c0.2,0.3,0.4,0.6,0.5,1   c0.1,0.4,0.1,1.1,0.1,2.1c0,1,0,1.6-0.1,2.1c-0.1,0.4-0.2,0.7-0.5,1c-0.2,0.3-0.5,0.6-0.9,0.8c-0.4,0.2-0.8,0.3-1.3,0.3   c-0.4,0-0.8-0.1-1.1-0.3c-0.4-0.2-0.7-0.4-1-0.7v4.2h-1.6V79.5z M273,86.1c0.4,0,0.7-0.1,0.9-0.2c0.2-0.1,0.4-0.3,0.5-0.6   c0.1-0.2,0.2-0.5,0.2-0.8c0-0.3,0-0.6,0-0.9c0-0.3,0-0.6,0-0.9c0-0.3-0.1-0.6-0.2-0.8c-0.1-0.2-0.3-0.4-0.5-0.6   c-0.2-0.1-0.5-0.2-0.9-0.2c-0.4,0-0.7,0.1-0.9,0.2c-0.2,0.1-0.4,0.4-0.5,0.6c-0.1,0.3-0.2,0.5-0.2,0.8c-0.1,0.6-0.1,1.2,0,1.8   c0,0.3,0.1,0.6,0.2,0.8c0.1,0.2,0.3,0.4,0.5,0.6C272.4,86,272.7,86.1,273,86.1z M282.4,86.9L282.4,86.9c-0.2,0.3-0.4,0.5-0.7,0.6   c-0.3,0.1-0.7,0.2-1.3,0.2c-0.9,0-1.6-0.3-2.1-0.7c-0.5-0.4-0.8-1.1-0.8-1.8c0-0.7,0.2-1.2,0.7-1.7c0.4-0.5,1.1-0.7,2-0.7h2.3V82   c0-0.7-0.5-1.1-1.7-1c-0.4,0-0.7,0-1,0.1c-0.2,0.1-0.4,0.3-0.6,0.5l-1.3-1c0.6-0.8,1.5-1.2,2.7-1.2c1,0,1.8,0.2,2.4,0.6   c0.6,0.4,0.9,1.1,0.9,2.1v5.5h-1.6L282.4,86.9L282.4,86.9z M282.4,84.2h-2c-0.9,0-1.4,0.3-1.4,1c0,0.3,0.1,0.5,0.4,0.7   c0.2,0.2,0.6,0.3,1.2,0.3c0.7,0,1.2-0.1,1.4-0.2c0.3-0.2,0.4-0.6,0.4-1.2L282.4,84.2C282.4,84.2,282.4,84.2,282.4,84.2z    M286.1,79.5h1.6v0.9h0c0.5-0.6,1.2-1,2.1-1c0.7,0,1.3,0.2,1.8,0.7c0.6,0.5,0.8,1.2,0.9,2.1v5.4H291v-4.8c0-0.6-0.1-1-0.5-1.3   c-0.3-0.3-0.7-0.5-1.1-0.5c-0.4,0-0.9,0.1-1.2,0.5c-0.3,0.3-0.5,0.7-0.5,1.3v4.8h-1.6C286.1,87.6,286.1,79.5,286.1,79.5z    M293.6,79.5h1.7l1.9,5.7h0l1.9-5.7h1.7l-3.5,9.8c-0.2,0.6-0.5,1-0.9,1.3c-0.4,0.2-0.9,0.3-1.4,0.3h-0.5v-1.5h0.5   c0.2,0,0.4-0.1,0.6-0.2c0.2-0.1,0.3-0.3,0.4-0.5l0.4-1.4L293.6,79.5L293.6,79.5z" fill="#000000">
</path>
<g fill="#000000">
<path class="st1" d="M141.1,51.6h-7.6v9.7h7.6c3.4,0,5.2-2.1,5.2-4.9C146.3,53.6,144.5,51.6,141.1,51.6z" fill="#000000">
</path>
<path class="st1" d="M215.7,46.7c-4.1,0-4.8,3.5-4.8,7.5c0,4,0.6,7.6,4.8,7.6c4.1,0,4.7-3.5,4.7-7.6    C220.4,50.2,219.8,46.7,215.7,46.7z" fill="#000000">
</path>
<path class="st1" d="M145.8,42.7c0-3-2.1-4.6-5.2-4.6h-7.2v9.2h7.2C143.7,47.2,145.8,45.6,145.8,42.7z" fill="#000000">
</path>
<path class="st1" d="M309.5,40h-0.2v1.4h0.2c0.3,0,0.4-0.1,0.5-0.2c0.1-0.1,0.2-0.3,0.2-0.5c0-0.2,0-0.4-0.2-0.5    C309.9,40,309.7,40,309.5,40z" fill="#000000">
</path>
<path class="st1" d="M311.5,38.6c-0.5-0.3-1.1-0.5-1.7-0.5c-1.2,0-2.4,0.7-3,1.8c-0.3,0.5-0.5,1.1-0.5,1.7c0,1.9,1.6,3.5,3.5,3.5    c0,0,0,0,0,0c1.2,0,2.4-0.7,3-1.8c0.3-0.5,0.5-1.1,0.5-1.7C313.3,40.4,312.6,39.2,311.5,38.6z M310.6,44.2l-1-1.9h-0.3v1.9H308V39    h1.5c0.7,0,1.2,0.1,1.5,0.4c0.3,0.3,0.5,0.7,0.5,1.2c0,0.7-0.3,1.1-0.8,1.3l1.4,2.3H310.6z" fill="#000000">
</path>
<rect class="st0" fill="#000000" height="22.8" width="4.6" x="183.3" y="42.9">
</rect>
<path class="st0" d="M311.5,40.6c0-0.5-0.2-1-0.5-1.2c-0.3-0.3-0.8-0.4-1.5-0.4H308v5.2h1.3v-1.9h0.3l1,1.9h1.5l-1.4-2.3    C311.2,41.7,311.5,41.3,311.5,40.6z M310,41.2c-0.1,0.1-0.3,0.2-0.5,0.2h-0.2v0h0v0h0V40h0.2c0.3,0,0.4,0,0.6,0.2    c0.1,0.1,0.2,0.3,0.2,0.5C310.2,40.9,310.1,41.1,310,41.2z" fill="#000000">
</path>
<path class="st0" d="M313.5,39.5c-0.4-0.7-0.9-1.2-1.6-1.6c-0.7-0.4-1.4-0.6-2.1-0.6c-0.8,0-1.5,0.2-2.2,0.6    c-0.7,0.4-1.2,0.9-1.6,1.6c-0.4,0.7-0.6,1.4-0.6,2.1c0,0.7,0.2,1.5,0.6,2.1c0.4,0.7,0.9,1.2,1.6,1.6c0.7,0.4,1.4,0.6,2.2,0.6    c0.8,0,1.5-0.2,2.2-0.6c0.7-0.4,1.2-0.9,1.6-1.6c0.4-0.7,0.6-1.4,0.6-2.1C314.1,40.8,313.9,40.1,313.5,39.5z M312.8,43.4    c-0.6,1.1-1.8,1.8-3,1.8c0,0,0,0,0,0c-1.9,0-3.5-1.6-3.5-3.5c0-0.6,0.2-1.2,0.5-1.7c0.6-1.1,1.8-1.8,3-1.8c0.6,0,1.2,0.2,1.7,0.5    c1.1,0.6,1.8,1.8,1.7,3C313.2,42.2,313.1,42.8,312.8,43.4z" fill="#000000">
</path>
<path class="st0" d="M186.2,33.6C186.2,33.6,186.2,33.6,186.2,33.6H185c-1,0-1.8,0.8-1.8,1.8v1.2c0,1,0.8,1.8,1.8,1.8h1.2    c1,0,1.8-0.8,1.8-1.8c0,0,0,0,0,0v-1.2C188,34.4,187.2,33.6,186.2,33.6z" fill="#000000">
</path>
<path class="st0" d="M146.4,49.2c2.2-0.9,4.3-3.3,4.3-6.8c0-5.4-3.7-8.8-9.6-8.8h-12.4v30.1c0,1,0.8,1.8,1.8,1.8h11.1    c5.7,0,9.6-3.1,9.6-9C151.2,52.6,148.9,50.2,146.4,49.2z M133.5,38.1h7.2c3.1,0,5.2,1.6,5.2,4.6c0,3-2.1,4.6-5.2,4.6h-7.2V38.1z     M141.1,61.3h-7.6v-9.7h7.6c3.4,0,5.2,2,5.2,4.8C146.3,59.2,144.5,61.3,141.1,61.3z" fill="#000000">
</path>
<path class="st0" d="M171.5,56.8L171.5,56.8L171.5,56.8c0,3.5-2.1,5.1-4.7,5.1c-2.6,0-4.6-1.5-4.6-5.1V42.9h-4.6v14.5    c0,2.6,0.5,4.7,2.3,6.4c1.3,1.3,3.3,2.1,5.6,2.1c2.3,0,4.5-0.9,6.1-2.6v2.3h4.5V42.9h-4.6V56.8z" fill="#000000">
</path>
<path class="st0" d="M257.7,56.8L257.7,56.8L257.7,56.8c0,3.5-2.1,5.1-4.7,5.1c-2.6,0-4.6-1.5-4.6-5.1V42.9h-4.6v14.5    c0,2.6,0.5,4.7,2.3,6.4c1.3,1.3,3.3,2.1,5.6,2.1c2.3,0,4.5-0.9,6.1-2.6v2.3h4.5V42.9h-4.6V56.8z" fill="#000000">
</path>
<path class="st0" d="M293.7,42.7c-3,0-5.3,1.1-7.1,3.3c-1.4-2.2-3.6-3.3-6.5-3.3c-2.3,0-4.5,0.9-6.1,2.6v-2.3h-4.5v22.7h4.6V51.8    c0-3.5,2.2-5.1,4.7-5.1c2.6,0,4.6,1.5,4.6,5.1v13.9h4.6V51.6c0-3.3,2.2-4.8,4.7-4.8c2.6,0,4.6,1.5,4.6,5.1v13.9h2.8    c1,0,1.8-0.8,1.8-1.8V51.1c0-2.6-0.7-4.7-2.4-6.4C298.1,43.4,296.1,42.7,293.7,42.7z" fill="#000000">
</path>
<rect class="st0" fill="#000000" height="0" width="0" x="309.3" y="41.3">
</rect>
<path class="st0" d="M202.3,61.8h-0.2c-1.8,0-2.5-0.9-2.5-2.6V33.7H195v25.7c0,3.4,1.9,6.3,6.2,6.3h1c1,0,1.8-0.8,1.8-1.8v-0.3    C204.1,62.6,203.3,61.8,202.3,61.8z" fill="#000000">
</path>
<path class="st0" d="M235.2,33.6C235.2,33.6,235.2,33.6,235.2,33.6h-1.2c-1,0-1.8,0.8-1.8,1.8v1.2c0,1,0.8,1.8,1.8,1.8h1.2    c1,0,1.8-0.8,1.8-1.8v-1.2C237,34.4,236.2,33.6,235.2,33.6z" fill="#000000">
</path>
<path class="st0" d="M220.4,45.2c-1.7-2-3.5-2.6-6-2.6c-2.3,0-4.3,0.8-5.5,2c-2.3,2.3-2.6,6.2-2.6,9.6c0,3.5,0.3,7.4,2.6,9.6    c1.3,1.3,3.3,2,5.6,2c2.5,0,4.3-0.6,6-2.7v2.4h4.5v-32h-4.6V45.2z M215.7,61.9c-4.1,0-4.8-3.5-4.8-7.6c0-4,0.6-7.5,4.8-7.5    c4.1,0,4.7,3.5,4.7,7.5C220.4,58.3,219.8,61.9,215.7,61.9z" fill="#000000">
</path>
<rect class="st0" fill="#000000" height="22.8" width="4.6" x="232.2" y="42.9">
</rect>
<g fill="#000000">
<path class="st0" d="M0,0v100h100V0H0z M54.4,49v34l-16.6-5c-1.1-0.3-2-1.6-2-2.7V49h-7l20.8-26.2c0.7-0.9,2.3-1.8,3.4-2.1     l18.2-4.4L45.4,49H54.4z" fill="#000000">
</path>
</g>
</g>
</g>
</svg>