<?xml version="1.0" encoding="utf-8"?>
<svg color="#000000" height="208px" version="1.1" viewBox="0 0 600 208" width="600px" xmlns="http://www.w3.org/2000/svg" xmlns:xlink="http://www.w3.org/1999/xlink">
<!-- Generator: Sketch 56.3 (81716) - https://sketch.com -->
<title>
  Cherr Logo (Red)@1.5x
 </title>
<desc>
  Created with Sketch.
 </desc>
<g fill="#000000" fill-rule="evenodd" id="Branding" stroke="#000000" stroke-width="1">
<g fill="#000000" fill-rule="nonzero" id="Artboard" transform="translate(-43.000000, -300.000000)">
<g id="Cherr-Logo-(Red)" transform="translate(43.000000, 300.000000)">
<g id="Chere_Logo_White">
<path d="M44.7049679,158.926778 C44.7049679,149.326029 47.0794032,140.232316 51.7604548,132.474134 L52.1007791,132.042938 C52.1936802,131.88127 52.3075522,131.692399 52.4734076,131.42038 C52.687301,131.069574 52.7751967,130.920175 53.0290818,130.477768 C53.7436825,129.422957 54.4946668,128.417075 55.2831843,127.460614 C54.4175922,127.826881 53.5700018,128.242149 52.7450839,128.705848 L51.5701011,129.399598 C50.5336782,130.011537 49.2467099,130.011537 48.210287,129.399598 L47.0465682,128.712469 C39.382454,124.228082 29.6133863,124.228082 21.807208,128.790974 C18.3303057,130.602341 15.474994,133.207781 13.4354819,136.418974 L12.9635435,137.003015 C12.8940767,137.071374 12.853637,137.135046 12.6522067,137.531484 L12.1812772,138.174995 C8.59413136,144.288582 6.66613148,151.47468 6.66613148,158.695528 C6.66613148,181.980861 26.0051381,200.945001 49.6551975,200.945001 L50.2426888,200.945001 C50.5070599,200.945001 50.5070599,200.945001 50.7181388,200.946901 C55.1764028,200.795619 59.3068499,200.124891 63.0868337,198.926234 C51.3981118,188.742168 44.4886957,174.229384 44.7049679,158.926778 Z M51.315146,158.973466 C51.1030451,174.00126 58.7948297,188.200756 71.5300156,197.152289 C73.5851871,198.596864 73.3424484,201.716377 71.0885774,202.825345 C65.1433107,205.750585 58.3869234,207.304013 50.8301802,207.558534 L49.6551975,207.558534 C22.3835665,207.558534 0.0556239665,185.663396 0.0556239665,158.695528 C0.0556239665,150.204632 2.34765887,141.762646 6.63152942,134.571376 L6.95313951,134.161521 C7.29538835,133.52 7.59353439,133.067632 8.04368331,132.580676 C10.696476,128.515762 14.3531294,125.217955 18.611986,123.003603 C28.1729014,117.40937 40.2416408,117.314625 49.8982033,122.725659 C55.112827,119.901504 60.9320051,118.595559 66.7225773,118.85457 C70.0335709,119.00267 71.0906049,123.390731 68.2105421,125.031552 C64.3489749,127.231553 61.1538808,130.27262 58.7115299,133.831485 C58.5591883,134.13131 58.4316703,134.348057 58.1168217,134.864438 C57.9029282,135.215244 57.8150325,135.364643 57.7715437,135.450234 L57.2911519,136.106675 C53.337136,142.754605 51.3154719,150.586758 51.315146,158.973466 Z" fill="#000000" id="XMLID_102_">
</path>
<path d="M146.458473,158.695528 C146.458473,151.873421 144.609014,144.764154 141.459557,139.008413 C141.346837,138.802413 141.256813,138.585805 141.190462,138.362399 L141.030847,138.156635 C140.134454,136.612957 139.302433,135.408905 138.346162,134.279033 C130.507629,125.314623 117.151962,122.94163 106.79429,128.937098 L105.619307,129.630848 C104.582884,130.242787 103.295916,130.242787 102.259493,129.630848 L101.08451,128.937098 C97.0905208,126.578911 92.3604615,125.480623 87.2546451,125.696054 C86.7632146,125.696054 86.2783848,125.733161 85.6965669,125.811235 C85.2729484,125.86808 84.8490935,125.93744 83.8414726,126.107097 C82.9457716,126.278073 82.5128896,126.362522 82.1008131,126.454683 C81.5158473,126.58551 81.0621363,126.7153 80.7836609,126.823882 C79.5796851,127.331645 79.0514861,127.559048 78.4053221,127.85427 C77.5793668,128.231635 76.8610611,128.591373 76.2201225,128.95149 C72.5933965,131.050845 69.7321053,133.712936 67.7196843,136.881474 L67.2477458,137.465515 C67.1782791,137.533874 67.1378394,137.597546 66.936409,137.993984 L66.50403,138.584817 C63.0657585,144.814545 61.1853304,152.034828 61.1853304,159.158028 C61.1853304,166.071839 62.8488688,172.729038 65.9556075,178.625567 C69.5302888,185.221235 74.7484137,190.831021 80.9233603,194.544965 C81.350039,194.711925 81.7671017,194.919003 82.2021676,195.168746 C82.5149657,195.348302 82.7566083,195.498894 83.1765881,195.772573 C84.1552023,196.204039 85.6891404,197.015333 85.4313226,196.894558 C90.9963042,199.514996 97.3275047,200.945001 103.704403,200.945001 L104.833014,200.945001 C128.146371,200.27862 146.458473,181.654046 146.458473,158.695528 Z M153.06898,158.695528 C153.06898,185.267836 131.866409,206.815209 104.879386,207.558534 L103.704403,207.558534 C96.3314541,207.558534 89.0216333,205.903443 82.5060201,202.825345 C82.4508766,202.798214 80.7555947,201.899923 80.7630876,201.896882 L80.5849736,201.843956 L79.8022692,201.467034 C79.3291238,201.156633 79.1296472,201.029858 78.9123196,200.905105 C78.7045809,200.785856 78.5568261,200.716185 78.4700048,200.687706 L77.8198518,200.393331 C70.4707208,196.054154 64.3250929,189.491814 60.12614,181.743823 C56.5027016,174.867175 54.5748229,167.15213 54.5748229,159.158028 C54.5748229,150.804449 56.7976524,142.376563 60.8722673,135.109068 L61.2250234,134.647156 C61.5724679,133.993335 61.8723413,133.53597 62.3278784,133.043184 C64.9170811,129.075608 68.4992956,125.779991 72.945355,123.206648 C73.7960793,122.728271 74.6757502,122.287718 75.6592684,121.838365 C76.3839177,121.507285 76.952369,121.262552 78.2896253,120.699622 C79.0061161,120.417595 79.7680329,120.199639 80.6586495,120.000453 C81.1843246,119.882886 81.7344839,119.775868 82.61149,119.609235 L82.7163234,119.590012 C83.7372204,119.417508 84.2773802,119.328917 84.8177812,119.256401 C85.6732914,119.1416 86.4452014,119.08252 87.1134232,119.08554 C93.1168903,118.828681 98.9256175,120.123987 103.943389,122.952446 C117.015597,115.691929 133.546087,118.744993 143.355714,129.964234 C144.525712,131.345847 145.517183,132.759001 146.521506,134.45071 C147.103217,135.064025 147.429063,135.878405 147.429063,136.726784 C147.429063,136.128428 147.2973,135.665225 147.089826,135.287622 C147.370086,135.646328 147.52838,136.025092 147.60734,136.484251 C151.070505,143.079868 153.06898,151.008638 153.06898,158.695528 Z" fill="#000000" id="XMLID_100_">
</path>
<path d="M112.869269,135.639801 C111.043827,135.639801 109.564015,134.159311 109.564015,132.333035 C109.564015,130.506758 111.043827,129.026268 112.869269,129.026268 C123.166316,129.026268 132.584458,134.486476 137.828156,143.17895 C140.282864,147.4733 141.554149,152.213996 141.554149,157.308028 C141.554149,162.402061 140.282864,167.142757 137.828156,171.437107 C136.92195,173.022455 134.902735,173.572671 133.318114,172.666051 C131.733492,171.759431 131.183527,169.739291 132.089732,168.153944 C133.975629,164.854692 134.943642,161.244915 134.943642,157.308028 C134.943642,153.371142 133.975629,149.761365 132.129274,146.529432 C128.107452,139.86383 120.821558,135.639801 112.869269,135.639801 Z" fill="#000000" id="XMLID_98_">
</path>
<path d="M88.0228978,96.6876717 C90.9380895,101.158177 94.0637623,105.200687 97.1854307,108.738143 C99.0446592,110.84501 100.474278,112.301529 101.258766,113.033481 C102.593749,114.279062 102.666686,116.371519 101.421674,117.707114 C100.176662,119.042708 98.0851622,119.115678 96.750179,117.870096 C96.500689,117.637315 96.0632174,117.211627 95.4645298,116.601674 C94.4845991,115.603305 93.3974562,114.438317 92.2298812,113.115227 C88.9063249,109.348992 85.5867728,105.055734 82.4864212,100.301284 C77.2962949,92.3421211 73.3223236,84.083905 70.8966313,75.6265428 C65.9639976,83.4275449 62.1297144,90.9366068 59.2754913,98.0908878 C57.299232,103.0445 55.9501079,107.455102 55.111771,111.260335 C54.6215738,113.485353 54.4104628,114.978675 54.3627375,115.677271 C54.2382638,117.499297 52.6609897,118.875389 50.8397973,118.750858 C49.0186048,118.626328 47.6431424,117.048332 47.7676161,115.226306 C47.837389,114.204981 48.0944352,112.38673 48.6562146,109.836799 C49.5711723,105.683782 51.0254836,100.929299 53.1359612,95.63926 C56.8080813,86.4348718 61.9988269,76.7170084 68.9223441,66.6076118 C68.043402,60.767839 67.9349971,54.8522314 68.7016505,48.8922305 C70.6227069,33.9578452 75.5050118,22.2673901 82.4711839,13.4767204 C88.0925509,6.38307226 93.8006203,2.48416849 97.7943383,0.912150343 C98.5001683,0.634319806 99.2800349,0.607814743 100.003084,0.837082493 C101.272227,1.23950872 102.940876,2.12968942 104.584724,3.71805887 C113.180985,12.024204 109.91812,27.4951127 89.0425909,51.4855449 C84.1110874,57.1528942 79.7438431,62.7138714 75.9034812,68.1486201 C77.7865685,77.8902046 82.0136504,87.4723715 88.0228978,96.6876717 Z M84.0567194,47.1430634 C102.919955,25.4651843 105.401009,13.7012406 99.992384,8.47515098 C99.6433703,8.13791633 99.2988591,7.86743372 98.9895254,7.6588925 C98.3260591,8.01969597 97.4873295,8.52511722 96.5108882,9.19207646 C93.5098205,11.2419596 90.4879266,14.005765 87.6512326,17.5854124 C81.4369653,25.4272468 77.0266407,35.987568 75.2580885,49.7363777 C74.8838275,52.6459013 74.7442685,55.5528399 74.8249757,58.4518631 C77.665233,54.7272158 80.7391141,50.955699 84.0567194,47.1430634 Z" fill="#000000" id="XMLID_97_">
</path>
<path d="M251.911845,196.010183 C245.299381,196.010183 239.386402,194.568367 234.172728,191.684691 C228.959055,188.801016 224.868714,184.751209 221.901583,179.53515 C218.934452,174.31909 217.450909,168.44581 217.450909,161.915134 C217.450909,155.384457 218.934452,149.532381 221.901583,144.358728 C224.868714,139.185075 228.959055,135.156472 234.172728,132.272796 C239.386402,129.389121 245.299381,127.947305 251.911845,127.947305 C257.676557,127.947305 262.826571,129.071074 267.362043,131.318644 C271.897515,133.566214 275.479213,136.852707 278.107243,141.17822 L271.36765,145.758152 C269.163496,142.450406 266.365957,139.969635 262.97495,138.315762 C259.583943,136.66189 255.896278,135.834966 251.911845,135.834966 C247.07966,135.834966 242.734997,136.916328 238.877727,139.079084 C235.020457,141.241841 232.010983,144.316301 229.849216,148.302558 C227.687449,152.288815 226.606582,156.826295 226.606582,161.915134 C226.606582,167.088786 227.687449,171.647469 229.849216,175.591319 C232.010983,179.535169 235.020457,182.588427 238.877727,184.751183 C242.734997,186.91394 247.07966,187.995302 251.911845,187.995302 C255.896278,187.995302 259.583943,187.189581 262.97495,185.578116 C266.365957,183.96665 269.163496,181.507081 271.36765,178.199336 L278.107243,182.779268 C275.479213,187.104781 271.876322,190.391274 267.298462,192.638844 C262.720603,194.886414 257.591782,196.010183 251.911845,196.010183 Z M325.665878,127.947305 C334.058621,127.947305 340.734565,130.38567 345.693913,135.262474 C350.653261,140.139278 353.132898,147.242342 353.132898,156.57188 L353.132898,195.374081 L344.104387,195.374081 L344.104387,157.462422 C344.104387,150.507676 342.366522,145.206882 338.890739,141.559881 C335.414957,137.91288 330.455684,136.089406 324.012771,136.089406 C316.806881,136.089406 311.105836,138.230927 306.909465,142.514033 C302.713093,146.797139 300.614939,152.712825 300.614939,160.261269 L300.614939,195.374081 L291.586428,195.374081 L291.586428,100.976595 L300.614939,100.976595 L300.614939,140.160457 C303.073419,136.259014 306.464376,133.248163 310.787909,131.127813 C315.111443,129.007464 320.070717,127.947305 325.665878,127.947305 Z M432.990713,164.713981 L377.039377,164.713981 C377.548028,171.668727 380.218406,177.287569 385.050591,181.570675 C389.882776,185.853781 395.986497,187.995302 403.361938,187.995302 C407.515921,187.995302 411.330747,187.253191 414.806529,185.768946 C418.282311,184.284701 421.291785,182.100774 423.83504,179.217099 L428.921525,185.069234 C425.954394,188.631421 422.245536,191.345428 417.794839,193.211335 C413.344142,195.077243 408.448449,196.010183 403.107613,196.010183 C396.240824,196.010183 390.158297,194.547164 384.859848,191.621081 C379.5614,188.694999 375.428672,184.645192 372.461541,179.47154 C369.49441,174.297887 368.010866,168.44581 368.010866,161.915134 C368.010866,155.384457 369.430829,149.532381 372.270798,144.358728 C375.110766,139.185075 379.010366,135.156472 383.969713,132.272796 C388.929061,129.389121 394.502945,127.947305 400.691533,127.947305 C406.880121,127.947305 412.432811,129.389121 417.349771,132.272796 C422.266732,135.156472 426.123944,139.163872 428.921525,144.295118 C431.719106,149.426364 433.117875,155.299643 433.117875,161.915134 L432.990713,164.713981 Z M400.691533,135.707745 C394.24862,135.707745 388.844283,137.764454 384.478362,141.877932 C380.11244,145.991409 377.632804,151.355813 377.039377,157.971304 L424.47085,157.971304 C423.877424,151.355813 421.397788,145.991409 417.031866,141.877932 C412.665945,137.764454 407.219221,135.707745 400.691533,135.707745 Z M457.024355,141.559881 C459.143734,137.06474 462.301562,133.672232 466.497933,131.382254 C470.694304,129.092277 475.886706,127.947305 482.075294,127.947305 L482.075294,136.725508 L479.913538,136.598288 C472.877198,136.598288 467.366894,138.761012 463.382461,143.086525 C459.398028,147.412038 457.405841,153.476146 457.405841,161.279032 L457.405841,195.374081 L448.37733,195.374081 L448.37733,128.456187 L457.024355,128.456187 L457.024355,141.559881 Z M503.820017,141.559881 C505.939397,137.06474 509.097225,133.672232 513.293596,131.382254 C517.489967,129.092277 522.682369,127.947305 528.870956,127.947305 L528.870956,136.725508 L526.7092,136.598288 C519.672861,136.598288 514.162557,138.761012 510.178124,143.086525 C506.19369,147.412038 504.201504,153.476146 504.201504,161.279032 L504.201504,195.374081 L495.172993,195.374081 L495.172993,128.456187 L503.820017,128.456187 L503.820017,141.559881 Z M599.573099,164.713981 L543.621763,164.713981 C544.130414,171.668727 546.800792,177.287569 551.632977,181.570675 C556.465162,185.853781 562.568883,187.995302 569.944323,187.995302 C574.098307,187.995302 577.913132,187.253191 581.388914,185.768946 C584.864697,184.284701 587.87417,182.100774 590.417425,179.217099 L595.503911,185.069234 C592.536779,188.631421 588.827921,191.345428 584.377224,193.211335 C579.926528,195.077243 575.030835,196.010183 569.689999,196.010183 C562.82321,196.010183 556.740682,194.547164 551.442234,191.621081 C546.143785,188.694999 542.011058,184.645192 539.043926,179.47154 C536.076795,174.297887 534.593252,168.44581 534.593252,161.915134 C534.593252,155.384457 536.013215,149.532381 538.853183,144.358728 C541.693152,139.185075 545.592751,135.156472 550.552099,132.272796 C555.511447,129.389121 561.085331,127.947305 567.273918,127.947305 C573.462506,127.947305 579.015197,129.389121 583.932157,132.272796 C588.849117,135.156472 592.70633,139.163872 595.503911,144.295118 C598.301491,149.426364 599.700261,155.299643 599.700261,161.915134 L599.573099,164.713981 Z M567.273918,135.707745 C560.831005,135.707745 555.426669,137.764454 551.060747,141.877932 C546.694826,145.991409 544.215189,151.355813 543.621763,157.971304 L591.053236,157.971304 C590.45981,151.355813 587.980173,145.991409 583.614252,141.877932 C579.24833,137.764454 573.801607,135.707745 567.273918,135.707745 Z" fill="#000000" id="cherre">
</path>
</g>
</g>
</g>
</g>
</svg>