<?xml version="1.0" encoding="utf-8"?>
<svg color="#000000" id="Layer_1" style="enable-background:new 0 0 617.6 108;" version="1.1" viewBox="0 0 617.6 108" x="0px" xml:space="preserve" xmlns="http://www.w3.org/2000/svg" xmlns:xlink="http://www.w3.org/1999/xlink" y="0px">
<g>
<path d="M11.5,85.3l-11.5-36c-0.2-0.7,0.1-1.7,0.6-2.1l17.5-14c0.6-0.5,1.4-0.3,1.9,0.3l13,18.3c0.4,0.6,0.4,1.6,0,2.2L12.7,85.4   C12.3,86.1,11.8,86,11.5,85.3 M69.5,106.9L46.4,77.4c-0.5-0.6-1.4-0.9-2.1-0.7l-21.1,7c-0.7,0.3-1.1,1-0.8,1.7l7.7,21.3   c0.3,0.7,1.1,1.3,1.8,1.3l37.2,0C69.7,108,70,107.5,69.5,106.9 M107.1,58.5L72.3,71.8c-0.7,0.3-1.2,1.1-1.2,1.8l0,22.6   c0,0.8,0.6,1.4,1.4,1.3l22.3-0.9c0.7,0,1.5-0.6,1.7-1.3l11.5-36C108.2,58.6,107.8,58.3,107.1,58.5 M73.5,7.2l1.7,37.8   c0,0.8,0.6,1.5,1.3,1.8l21.1,7c0.7,0.2,1.5-0.2,1.7-0.9l6.1-21.9c0.2-0.7-0.1-1.7-0.7-2.1L74.6,6.6C74,6.1,73.5,6.4,73.5,7.2    M15.2,23.8L51,33.8c0.7,0.2,1.6-0.1,2.1-0.7l13.1-18.3c0.4-0.6,0.3-1.5-0.3-1.9L47.2,0.3c-0.6-0.4-1.6-0.4-2.2,0L15,22.6   C14.4,23,14.5,23.6,15.2,23.8 M183,69h2.8l-1.5,13.9c-5.6,2.5-11.8,4.5-20.5,4.5c-17.6,0-28-13.1-28-27.7   c0-18.4,12.9-29.9,28.6-29.9c9.5,0,15.2,2.5,18.5,4.6l0.4,12.1h-2.7c-3.2-9-8.6-12.4-16.8-12.4c-14.2,0-19.3,10.3-19.3,22.6   c0,13.3,6.2,26.1,20.6,26.1C175.8,82.8,179.9,78,183,69 M190.3,68.4c0-12.6,9.3-20.5,20.2-20.5c11.2,0,18.8,8,18.8,19.1   c0,12.6-9.3,20.5-20.2,20.5C197.9,87.5,190.3,79.5,190.3,68.4 M221.9,69.4c0-9.3-5-17.1-13.4-17.1c-7.1,0-10.6,5.8-10.6,13.6   c0,9.3,5,17.1,13.4,17.1C218.3,83.1,221.9,77.3,221.9,69.4 M234.4,82.6L233.8,69h2.6c2.2,7.5,7,14.2,15.3,14.2c7.8,0,13-3.7,13-9.9   c0-5.5-4.2-7.8-10.1-10.2L247,60c-6.8-2.7-12.6-5.9-12.6-15c0-7.8,7.7-15.1,18.6-15.1c6.4,0,12.8,1.9,15.8,4.8v11.9h-2   c-1.8-7.5-6-12.6-14.2-12.6c-6.6,0-11.5,3.6-11.5,9.4c0,4.8,3.2,7,8.7,9.1l8.3,3.3c7.9,3.2,13.5,6.4,13.5,15.6   c0,10.3-9.4,16-20.9,16C243.9,87.5,237.9,85.5,234.4,82.6 M286.4,48h10.3v4.5h-10.3v22.3c0,5.2,2.1,7.5,6.4,7.5   c1.6,0,3.1-0.3,4.8-0.9c0.3,0.8,0.6,1.6,1,2.3c-1.9,1.8-4.9,3.8-9.2,3.8c-5.4,0-10.3-2.8-10.3-10.2V52.5h-5.9v-2.5   c4.4-2.3,7.3-5,10.9-9.5h2.3V48z M330.6,77.6c0,3.2,1.4,4.9,3.5,4.9c0.5,0,1.5-0.1,2.4-0.2c0.2,0.8,0.7,1.9,0.9,2.5   c-2.2,2-4.3,2.8-6.7,2.8c-3.7,0-5.5-2.6-6.6-6.6c-2.6,3-6.6,6.6-13.2,6.6c-7,0-10.7-4.3-10.7-9.9c0-6.7,4.3-8.3,9.8-9.9l13.3-4.1   v-1.5c0-5.9-2.3-10.5-8.4-10.5c-4,0-5.7,1.7-5.7,5.3c0,0.7,0.2,2,0.4,3.5l-5.8,0.7c-1-1-1.5-2.2-1.5-3.9c0-5.9,6.2-9.4,14.1-9.4   c8.7,0,14.3,3.7,14.3,13.8V77.6z M323.2,77.9V67.2l-12,4c-2.5,0.8-3.7,2.2-3.7,5c0,4.1,2.3,6.2,6.2,6.2   C317.8,82.3,320.3,80.5,323.2,77.9 M352.1,59c3.3-6,6.6-11.1,11.8-11.1c1.7,0,2.1,0.4,3.6,1v6.6h-3.1c-4.5,0-7.2,1.2-11.6,6.8v17.3   c0,3.6,1.5,3.8,5.9,4.4v3h-19.1v-3c2.9-0.4,5.9-0.8,5.9-4.1V55.7l-5.9-2.5v-1.7l10.5-3.5h2.5L352.1,59z M407,29.9   c9.5,0,15.2,2.5,18.6,4.6l0.4,12h-2.7c-3.2-9-8.6-12.4-16.8-12.4c-14.2,0-19.3,10.3-19.3,22.6c0,13.3,6.6,26.2,20.5,26.2   c6.4,0,9.6-1.5,12.6-4.3v-9.9c0-4.8-4.4-5.6-8.8-5.8V60h22.1v2.8c-2.9,0.4-5.9,1-5.9,5.8v13c-5.9,3.4-12.2,5.8-21.2,5.8   c-17.6,0-28.1-13.2-28.1-27.7C378.5,41.4,391.5,29.9,407,29.9 M448.8,59c3.3-6,6.8-11.1,12-11.1c1.7,0,2.3,0.4,3.8,1v6.6h-3.5   c-4.5,0-6.8,1.2-12.7,6.8v17.3c0,3.6,2.9,3.8,7.4,4.4v3h-19.1v-3c2.9-0.4,4.4-0.8,4.4-4.1V55.7l-4.4-2.5v-1.7l10.1-3.5h2.5   L448.8,59z M464.5,68.4c0-12.6,9.3-20.5,20.2-20.5c11.2,0,18.8,8,18.8,19.1c0,12.6-9.3,20.5-20.2,20.5   C472.2,87.5,464.5,79.5,464.5,68.4 M496.1,69.4c0-9.3-5-17.1-13.4-17.1c-7.1,0-10.6,5.8-10.6,13.6c0,9.3,5,17.1,13.4,17.1   C492.5,83.1,496.1,77.3,496.1,69.4 M536.5,80.2c-3,3.7-7.5,7.2-13.1,7.2c-6.9,0-11.7-3.3-11.7-11.7V56.1c0-2.6-1.1-3.3-4.7-3.7   l-1.2-0.1v-2.9l11.3-1.3h1.8l0.1,7.4v19.3c0,5.3,2.9,7.3,7,7.3c4.3,0,7.7-2.3,10.6-4.8V56.1c0-2.6-1.1-3.3-4.7-3.7l-1.2-0.1v-2.9   l11.2-1.3h1.8l0.2,7.4v23.2c0,2.5,0.7,3,4,3.3l1.8,0.2V85l-12.8,2h-1.1L536.5,80.2z M563.2,84.6v12.5c0,3.3,1.5,3.7,5.9,4.1v2.3   H550v-2.3c2.9-0.4,5.9-0.8,5.9-4.1V55.7l-5.9-2.5v-1.7l10.9-3.5h2.5l-0.4,6.6c3-4,8-6.7,13.5-6.7c10.9,0,16.6,8.1,16.6,18   c0,13.3-9.1,21.6-20.2,21.6C568.6,87.5,564.7,86.4,563.2,84.6 M585.8,68.9c0-7.5-2.8-15.6-11.9-15.6c-4.3,0-9.2,2.2-10.7,4.8v16.2   c0,6.8,5,9.1,10.4,9.1C581.1,83.4,585.8,78.2,585.8,68.9 M607.4,47.9V49h-3.1v8.4H603V49h-3.1v-1.1H607.4z M608.6,47.9h1.8l2.7,8.1   l2.7-8.1h1.8v9.5h-1.2v-5.6c0-0.2,0-0.5,0-1c0-0.4,0-0.9,0-1.4l-2.7,8h-1.3l-2.7-8v0.3c0,0.2,0,0.6,0,1.1c0,0.5,0,0.8,0,1.1v5.6   h-1.2V47.9z" fill="#000000">
</path>
</g>
</svg>