<?xml version="1.0" encoding="utf-8"?>
<svg color="#000000" fill="#000000" height="25" viewBox="0 0 189 25" width="189" xmlns="http://www.w3.org/2000/svg"><style>* { fill: #000000 !important; stroke: #000000 !important; color: #000000 !important; }</style>
<path d="M23.8489 6.2881H26.8065V20.215H23.8489V18.2663C23.2975 20.0331 21.8312 20.5138 20.1644 20.5138C20.1143 20.5138 20.0516 20.5138 20.0015 20.5138C19.9514 20.5138 19.9013 20.5138 19.8511 20.5138C16.5677 20.5138 14.6126 18.3312 14.6502 14.3948V6.2881H17.6079V14.044C17.6079 16.3435 18.7859 17.5387 20.4026 17.5387C20.7159 17.5387 21.0292 17.4998 21.3299 17.4348C23.0845 16.7722 23.8489 14.4208 23.8489 11.3028V6.2881ZM141.878 11.2898C141.878 14.4078 141.113 16.7593 139.359 17.4218C139.058 17.4868 138.745 17.5258 138.432 17.5258C136.815 17.5258 135.637 16.3305 135.637 14.031V6.2881H132.679V14.3948C132.654 18.3312 134.609 20.5138 137.88 20.5138C137.93 20.5138 137.98 20.5138 138.031 20.5138C138.081 20.5138 138.143 20.5138 138.193 20.5138C139.86 20.5138 141.314 20.0331 141.878 18.2663V20.215H144.836V6.2881H141.878V11.2898ZM88.0267 8.23682V6.2881H85.0691V20.215H88.0267V15.2003C88.0267 11.4977 89.092 8.87341 91.6235 8.87341C92.2 8.87341 92.8642 8.96435 93.6036 9.35409L94.0924 6.52195C93.6663 6.22314 92.6511 5.98929 91.7112 5.98929C90.0319 5.98929 88.5782 6.46998 88.0267 8.23682ZM168.208 8.23682V6.2881H165.251V20.215H168.208V15.2003C168.208 11.4977 169.274 8.87341 171.805 8.87341C172.382 8.87341 173.046 8.96435 173.785 9.35409L174.274 6.52195C173.848 6.22314 172.833 5.98929 171.88 5.98929C170.226 5.98929 168.76 6.46998 168.208 8.23682ZM47.372 0.0391846C46.3444 0.0391846 45.5047 0.909615 45.5047 1.97492C45.5047 3.04022 46.3444 3.91065 47.372 3.91065C48.3997 3.91065 49.2393 3.04022 49.2393 1.97492C49.2393 0.909615 48.3997 0.0391846 47.372 0.0391846ZM66.4211 13.2645C66.4211 17.7076 63.3757 20.5138 59.7539 20.5138C57.9367 20.5138 56.107 19.7733 55.2674 18.2143V24.3333H52.3097V6.2881H55.2674V8.34076C56.107 6.84673 57.9367 5.98929 59.7539 5.98929C63.3757 5.98929 66.4211 8.8864 66.4211 13.2645ZM63.4008 13.3295C63.4008 10.7312 61.6212 8.97734 59.3779 8.97734C57.1973 8.97734 55.2924 10.6143 55.2924 13.3295C55.2924 16.0707 57.3352 17.5647 59.3779 17.5647C61.6212 17.5517 63.4008 15.8888 63.4008 13.3295ZM45.9183 20.215H48.8508V6.2881H45.9183V20.215ZM37.3587 5.98929C35.8674 5.98929 34.0251 6.76878 33.2481 8.37973V6.2881H30.2905V20.215H33.2481V12.7319C33.2481 9.99068 34.94 9.00332 36.6945 9.00332C38.424 9.00332 39.5143 10.2505 39.5143 12.4591V20.215H42.4719V12.0953C42.4719 8.17187 40.6046 5.98929 37.3587 5.98929ZM82.2118 13.1996C82.2118 13.5244 82.2118 14.031 82.1867 14.3298H71.5092C71.7974 16.4734 73.4642 17.8246 75.6198 17.8246C77.1111 17.8246 78.4771 17.2529 79.1664 15.9668L81.9486 15.9538C80.8708 19.0458 78.7152 20.5008 75.4819 20.5008C71.6596 20.5008 68.5766 17.6037 68.5766 13.1996C68.5766 8.78247 71.6596 5.98929 75.4819 5.98929C79.3043 5.98929 82.2118 8.79546 82.2118 13.1996ZM79.3043 12.0953C79.016 9.91273 77.4871 8.66554 75.4819 8.66554C73.4141 8.66554 71.7974 9.9517 71.5092 12.0953H79.3043ZM105.798 5.98929C106.224 5.65152 106.825 5.45664 107.602 5.45664C108.342 5.45664 109.006 5.63852 109.532 6.05425C109.996 6.43101 110.322 6.98964 110.522 7.73016L113.354 6.54793C113.016 5.17083 112.339 4.10553 111.387 3.378C110.397 2.6115 109.106 2.20877 107.627 2.20877C106.011 2.20877 104.607 2.68945 103.617 3.55988C102.627 4.43031 102.038 5.69049 102.038 7.32742C102.038 9.05529 102.652 10.1856 103.529 11.004C104.419 11.8225 105.597 12.3162 106.725 12.6799C107.389 12.8878 108.016 13.0697 108.542 13.3035C109.068 13.5374 109.52 13.8102 109.808 14.2389C109.996 14.5247 110.096 14.8625 110.096 15.2522C110.096 15.8369 109.858 16.3565 109.419 16.6943C108.981 17.0321 108.379 17.201 107.652 17.201C106.838 17.201 106.161 16.9931 105.635 16.5514C105.171 16.1616 104.858 15.577 104.657 14.8625L101.875 16.1097C102.238 17.6167 102.978 18.682 103.955 19.3705C104.983 20.0981 106.261 20.4358 107.627 20.4358C109.231 20.4358 110.635 19.9682 111.625 19.0977C112.615 18.2273 113.217 16.9541 113.217 15.2652C113.217 13.5763 112.678 12.498 111.838 11.6926C110.998 10.8871 109.845 10.3804 108.63 9.96469C107.915 9.73085 107.264 9.52298 106.725 9.27614C106.186 9.0423 105.735 8.76948 105.447 8.35375C105.259 8.08093 105.158 7.74315 105.158 7.36639C105.158 6.83374 105.371 6.32707 105.798 5.98929ZM126.313 6.2881H129.27V24.3333H126.313V18.2143C125.511 19.7603 123.643 20.5138 121.826 20.5138C118.204 20.5138 115.159 17.7076 115.159 13.2645C115.159 8.8864 118.204 5.98929 121.826 5.98929C123.643 5.98929 125.511 6.85973 126.313 8.34076V6.2881ZM126.288 13.3295C126.288 10.6143 124.42 8.97734 122.202 8.97734C119.959 8.97734 118.204 10.7312 118.204 13.3295C118.204 15.8888 119.959 17.5647 122.202 17.5647C124.22 17.5517 126.288 16.0707 126.288 13.3295ZM188.586 14.4468H177.908C178.196 16.5904 179.863 17.8246 182.019 17.8246C183.51 17.8246 184.876 17.2529 185.565 15.9668L188.348 15.9538C187.27 19.0458 185.114 20.5008 181.881 20.5008C178.059 20.5008 174.976 17.6037 174.976 13.1996C174.976 8.78247 178.059 5.98929 181.881 5.98929C185.703 5.98929 188.611 8.79546 188.611 13.1996C188.611 13.5374 188.611 14.148 188.586 14.4468ZM185.703 12.0433C185.415 9.86076 183.886 8.66554 181.881 8.66554C179.813 8.66554 178.196 9.88675 177.908 12.0433H185.703ZM158.847 6.2881H161.779V20.215H158.847V18.2143C157.957 19.7343 156.002 20.5138 154.335 20.5138C150.713 20.5138 147.517 17.6817 147.517 13.2386C147.517 8.79546 150.713 5.98929 154.335 5.98929C155.952 5.98929 157.932 6.67784 158.847 8.24982V6.2881ZM158.809 13.1996C158.809 10.4584 156.679 8.96435 154.661 8.96435C152.418 8.96435 150.55 10.6403 150.55 13.1996C150.55 15.7589 152.418 17.5258 154.661 17.5258C156.854 17.5258 158.809 15.9538 158.809 13.1996ZM11.1161 2.22176V5.71647V14.2519C11.1161 16.3565 10.5021 17.8895 9.49947 18.9158C8.50942 19.9292 7.11834 20.4488 5.52674 20.4488C3.69702 20.4488 2.35607 19.7863 1.44121 18.7599C0.526356 17.7336 0.0501291 16.3435 0.0125323 14.8885C0.0125323 14.6157 0 13.9791 0 13.6153H2.81976C2.84483 14.6286 3.03281 15.4861 3.45891 16.1227C3.91007 16.8112 4.63694 17.214 5.56433 17.201C6.34133 17.201 6.98048 16.9281 7.39405 16.4085C7.80761 15.8758 8.00813 15.1353 8.00813 14.2259V5.45664H3.32105V2.22176H11.1161Z" fill="#000000"/>
</svg>