<?xml version="1.0" encoding="utf-8"?>
<svg color="#000000" id="Layer_1" style="enable-background:new 0 0 1286.4 158;" version="1.1" viewBox="0 0 1286.4 158" x="0px" xml:space="preserve" xmlns="http://www.w3.org/2000/svg" xmlns:graph="ns_graphs;" xmlns:i="ns_ai;" xmlns:x="ns_extend;" xmlns:xlink="http://www.w3.org/1999/xlink" y="0px"><style>* { fill: #000000 !important; stroke: #000000 !important; color: #000000 !important; }</style>
<style type="text/css">
  .st0{fill:#FFFFFF;}
 </style>
<metadata>
<sfw xmlns="ns_sfw;">
<slices>
</slices>
<sliceSourceBounds bottomLeftOrigin="true" height="158" width="1286.4" x="-491.9" y="0">
</sliceSourceBounds>
</sfw>
</metadata>
<g fill="#000000">
<g fill="#000000">
<path class="st0" d="M115,26c0,14.3-11.6,26-25.9,26S63.3,40.3,63.3,26S74.9,0,89.2,0C103.4,0,115,11.6,115,26" fill="#000000">
</path>
<path class="st0" d="M51.7,132c0,14.3-11.6,26-25.9,26S0,146.4,0,132s11.6-26,25.9-26S51.7,117.7,51.7,132" fill="#000000">
</path>
<path class="st0" d="M178.3,132c0,14.3-11.6,26-25.9,26c-14.3,0-25.8-11.6-25.8-26s11.6-26,25.8-26    C166.8,106.1,178.3,117.7,178.3,132" fill="#000000">
</path>
</g>
<path class="st0" d="M1016.9,96.2c0-36,27.8-61.2,62.4-61.2c19.8,0,37.7,8.5,48,19.8l-14.5,15.3c-8.5-8.6-20.3-14.1-33.4-14.1   c-22.9,0-40,17-40,40c0,22.6,16.6,40,39.6,40c13,0,25.4-5.8,33.1-13.6v-17.9h-34.2V85.3h54.4v47.8c-14.5,15.3-33.3,23.8-53.9,23.8   C1042.6,156.9,1016.9,131.2,1016.9,96.2z" fill="#000000">
</path>
<g fill="#000000">
<path class="st0" d="M270.7,110.7h-14.5V155h-21.7V36.9h44c27,0,39.6,17.7,39.6,36.9c0,14.4-7.5,28.8-24.8,34.4L323,155h-25.9    L270.7,110.7z M256.2,91.1H276c14.2,0,19.7-8.5,19.7-17.1c0-9-5.9-16.8-17.3-16.8h-22.2V91.1z" fill="#000000">
</path>
<path class="st0" d="M373.2,36.9h78.5v20.5h-56.6v27.8h52.3v20.3h-52.3v29.1h56.6V155h-78.5V36.9z" fill="#000000">
</path>
<path class="st0" d="M568.1,128.2h-41.9l-9.7,26.9h-23.2L539,36.9h16.8L601,155h-23.2L568.1,128.2z M532.6,108.5h29.3l-14.5-40.4    L532.6,108.5z" fill="#000000">
</path>
<path class="st0" d="M646.8,36.9h21.9v97.2h60.8V155h-82.7V36.9z" fill="#000000">
</path>
<path class="st0" d="M859.3,75.4c0,19.7-12.5,37.9-42.5,37.9h-19.2V155h-21.7V36.9h42.7C847.4,36.9,859.3,56.1,859.3,75.4z     M837.1,75.1c0-9.4-6.2-17.9-18.1-17.9h-21.4v36.1h19.8C831.1,93.3,837.1,84,837.1,75.1z" fill="#000000">
</path>
<path class="st0" d="M957.5,128.2h-41.9l-9.7,26.9h-23.2l45.7-118.2h16.8L990.4,155h-23.2L957.5,128.2z M922,108.5h29.3    l-14.5-40.4L922,108.5z" fill="#000000">
</path>
<path class="st0" d="M1178.7,36.9h78.5v20.5h-56.6v27.8h52.3v20.3h-52.3v29.1h56.6V155h-78.5V36.9z" fill="#000000">
</path>
</g>
<g fill="#000000">
<path class="st0" d="M1277.2,36.9c5.2,0,9.3,4,9.3,9.1s-4.1,9.2-9.3,9.2c-5.2,0-9.4-4-9.4-9.2S1271.9,36.9,1277.2,36.9    C1277.1,36.9,1277.2,36.9,1277.2,36.9z M1277.1,38.7c-4,0-7,3.3-7,7.3c0,4,3.1,7.3,7.1,7.3c4,0,6.9-3.2,6.9-7.2    C1284.1,42,1281.1,38.7,1277.1,38.7L1277.1,38.7L1277.1,38.7z M1275.7,50.7h-2.1v-9.1c0.8-0.1,2-0.3,3.5-0.3    c1.7,0,2.5,0.3,3.1,0.7c0.6,0.4,0.9,1.1,0.9,1.9c0,1.1-0.8,1.8-1.9,2.2v0.1c0.9,0.3,1.3,1,1.6,2.2c0.3,1.4,0.5,1.9,0.7,2.2h-2.2    c-0.3-0.3-0.4-1.1-0.7-2.2c-0.2-0.9-0.7-1.4-1.9-1.4h-1L1275.7,50.7L1275.7,50.7z M1275.7,45.6h1c1.2,0,2.1-0.4,2.1-1.3    c0-0.8-0.6-1.4-1.9-1.4c-0.6,0-0.9,0-1.2,0.1V45.6z" fill="#000000">
</path>
</g>
</g>
</svg>