<?xml version="1.0" encoding="utf-8"?>
<svg color="#000000" height="689.02667" id="svg2" version="1.1" viewBox="0 0 2000 689.02667" width="2000" xml:space="preserve" xmlns="http://www.w3.org/2000/svg" xmlns:cc="http://creativecommons.org/ns#" xmlns:dc="http://purl.org/dc/elements/1.1/" xmlns:rdf="http://www.w3.org/1999/02/22-rdf-syntax-ns#" xmlns:svg="http://www.w3.org/2000/svg" xmlns:xlink="http://www.w3.org/1999/xlink">
<metadata id="metadata8">
<rdf:RDF>
<cc:Work rdf:about="">
<dc:format>
     image/svg+xml
    </dc:format>
<dc:type rdf:resource="http://purl.org/dc/dcmitype/StillImage">
</dc:type>
</cc:Work>
</rdf:RDF>
</metadata>
<defs id="defs6">
<clipPath clipPathUnits="userSpaceOnUse" id="clipPath18">
<path d="M 0,516.77 H 1500 V 0 H 0 Z" fill="#000000" id="path16">
</path>
</clipPath>
</defs>
<g id="g10" transform="matrix(1.3333333,0,0,-1.3333333,0,689.02667)">
<g id="g12">
<g clip-path="url(#clipPath18)" id="g14">
<g id="g20" transform="translate(746.7874,214.6292)">
<path d="m 0,0 c -3.721,-12.461 -9.667,-21.962 -18.907,-28.577 -10.157,-7.169 -25.486,-11.069 -44.428,-11.069 h -26.996 l -0.04,167.633 22.662,-0.033 c 22.31,-0.072 38.829,-3.638 49.945,-11.808 8.126,-6.055 13.78,-14.512 17.483,-26.049 C 3.411,78.541 5.052,63.976 5.052,45.936 5.052,27.877 3.709,12.485 0,0 m 20.193,148.912 c -22.235,14.668 -52.178,20.133 -92.063,20.137 l -75.431,0.039 V -80.649 l 77.009,-0.042 c 27.417,0 50.987,3.523 70.693,11.431 19.792,8.078 35.271,20.888 45.768,39.36 10.486,18.451 15.974,42.513 15.974,73.094 0,26.443 -3.325,48.069 -10.231,65.499 -6.903,17.451 -17.455,30.688 -31.719,40.219" fill="#000000" id="path22" style="fill: #000000;fill-opacity:1;fill-rule:nonzero;stroke: #000000">
</path>
</g>
<g id="g24" transform="translate(844.691,133.9799)">
<path d="m 0,0 h 57.036 v 106.431 h 65.927 v 40.687 H 57.036 v 61.503 l 101.842,-0.017 v 41.133 H 0 Z" fill="#000000" id="path26" style="fill: #000000;fill-opacity:1;fill-rule:nonzero;stroke: #000000">
</path>
</g>
<g id="g28" transform="translate(1039.6704,133.9799)">
<path d="M 0,0 H 57.114 V 249.737 H 0 C 0,249.737 -0.424,0 0,0" fill="#000000" id="path30" style="fill: #000000;fill-opacity:1;fill-rule:nonzero;stroke: #000000">
</path>
</g>
<g id="g32" transform="translate(1347.7516,383.7172)">
<path d="M 0,0 H -57.331 V -143.307 L -163.455,0 h -45.726 v -249.737 h 57.372 v 147.079 L -46.842,-249.737 H 0 Z" fill="#000000" id="path34" style="fill: #000000;fill-opacity:1;fill-rule:nonzero;stroke: #000000">
</path>
</g>
<g id="g36" transform="translate(247.9346,281.0975)">
<path d="m 0,0 h -35.001 -1.951 V 102.594 H 0 c 18.288,0 32.231,-2.367 42.677,-11.858 C 46.538,87.085 49.52,82.66 51.634,77.335 54.2,70.878 55.492,63.099 55.492,53.734 55.492,40.097 54.24,0 0,0 m 136.081,-156.64 c -4.794,1.921 -9.604,5.585 -22.513,27.314 l -25.712,42.639 -30.31,50.259 -2.572,4.269 c 1.486,0.423 2.941,0.895 4.379,1.388 34.796,11.93 55.106,43.777 55.106,89.221 0,22.464 -9.08,43.206 -26.423,58.729 -2.526,2.148 -5.141,4.199 -7.937,6.068 C 56.95,138.52 25.77,144.21 -15.762,144.215 l -78.544,0.04 h -0.038 v -0.019 h -1.157 c -5.104,0.064 -5.588,-2.873 -3.583,-5.537 1.805,-2.37 3.853,-5.529 4.74,-13.553 v -250.744 c -0.885,-10.207 -2.964,-13.46 -4.74,-15.811 -2.028,-2.652 -1.134,-5.687 3.973,-5.633 h 58.159 v 106.361 h 26.434 l 18.566,-31.552 23.353,-39.688 11.351,-19.286 c 14.424,-24.278 27.044,-37.726 52.17,-40.599 3.428,-0.456 7.083,-0.67 11.024,-0.705 h 3.887 c 9.034,0 17.859,3.625 23.35,5.964 0.747,0.27 1.472,0.561 2.191,0.88 6.599,2.923 4.775,7.405 0.707,9.027" fill="#000000" id="path38" style="fill: #000000;fill-opacity:1;fill-rule:nonzero;stroke: #000000">
</path>
</g>
<g id="g40" transform="translate(458.8077,240.3688)">
<path d="M 0,0 H 66.07 V 40.687 H 0 v 61.662 h 101.799 v 40.956 h -158.95 v -249.736 h 158.982 v 41.416 L 0,-65.015 Z" fill="#000000" id="path42" style="fill: #000000;fill-opacity:1;fill-rule:nonzero;stroke: #000000">
</path>
</g>
</g>
</g>
</g>
</svg>