<?xml version="1.0" encoding="utf-8"?>
<svg color="#000000" id="Layer_1" style="enable-background:new 0 0 258.4 80;" version="1.1" viewBox="0 0 258.4 80" x="0px" xml:space="preserve" xmlns="http://www.w3.org/2000/svg" xmlns:xlink="http://www.w3.org/1999/xlink" y="0px">
<style type="text/css">
  .st0{fill-rule:evenodd;clip-rule:evenodd;fill:#2E3191;}
	.st1{fill:#2E3191;}
 </style>
<g>
<path class="st0" d="M76.9,39.2c0,0,0-0.1,0.1-0.1c0,0,0,0,0,0c0,0,0-0.1,0.1-0.1c0,0,0-0.1,0-0.1c0,0,0,0,0,0c0,0,0,0,0,0   c0,0,0-0.1,0-0.1c0-0.2,0-0.4,0-0.6c0,0,0,0,0-0.1c0,0,0,0,0-0.1l0,0c0,0,0-0.1,0-0.1c0,0,0-0.1-0.1-0.1c0,0,0,0,0,0c0,0,0,0,0,0   l0,0c0,0,0,0,0-0.1c-0.1-0.2-0.2-0.3-0.4-0.4c0,0,0,0,0,0l0,0c0,0,0,0-0.1,0l0,0l0,0c0,0-0.1,0-0.1-0.1c0,0-0.1,0-0.1,0   c0,0,0,0,0,0c0,0-0.1,0-0.1,0c-0.1,0-0.2,0-0.3,0H58.6V19.9c0-0.1,0-0.2,0-0.3c0,0,0,0,0-0.1c0,0,0,0,0,0l0,0l0,0l0,0   c0,0,0-0.1,0-0.1c0,0,0-0.1-0.1-0.1c0,0,0,0,0,0l0,0l0,0c0,0,0,0,0-0.1c-0.1-0.1-0.1-0.1-0.2-0.2L39.6,0.4c-0.3-0.3-0.6-0.4-1-0.4   s-0.7,0.1-1,0.4l-37.2,37c-0.6,0.6-0.6,1.4,0,2l37.2,37c0.1,0.1,0.1,0.1,0.2,0.2c0,0,0,0,0.1,0c0,0,0,0,0,0c0,0,0.1,0,0.1,0.1   c0,0,0.1,0,0.1,0c0,0,0,0,0,0c0,0,0,0,0,0c0,0,0,0,0,0c0,0,0,0,0.1,0c0.1,0,0.2,0,0.3,0c0.1,0,0.2,0,0.3,0l0,0l0,0c0,0,0,0,0.1,0   c0,0,0,0,0,0c0,0,0.1,0,0.1,0c0,0,0.1,0,0.1-0.1c0,0,0,0,0,0c0,0,0,0,0.1,0c0.1-0.1,0.1-0.1,0.2-0.2l37.2-37   C76.8,39.4,76.9,39.3,76.9,39.2z M72.3,39.8L58.6,53.5V39.8H72.3z M38.6,3.4l16.6,16.5L38.6,36.4L22,19.9L38.6,3.4z M18.6,53.5   L3.4,38.4l15.2-15.1V53.5z M21.4,23.3L37.2,39v33L21.4,56.3V23.3z M40,39l15.7-15.7v33L40,72V39z" fill="#000000">
</path>
<path class="st1" d="M92.7,30.7c0-0.5,0.4-0.9,0.9-0.9h1.1c0.6,0,0.9,0.4,1,0.9l0.1,1.9c0.9-1.3,3.4-3,5.8-3h0.7c0.6,0,1,0.4,1,0.9   v1.2c0,0.5-0.4,0.9-1,0.9h-0.8c-2.5,0-4.7,1.3-5.7,3.6V49c0,0.5-0.3,0.9-0.9,0.9h-1.2c-0.5,0-0.9-0.4-0.9-0.9V30.7z" fill="#000000">
</path>
<path class="st0" d="M122.5,43.6h-1.2c-0.5,0-0.9,0.2-1.1,0.7c-0.9,2-2.8,3.2-5.1,3.2c-4.2,0-6.4-3.1-6.3-7.3h13.6c0.6,0,1-0.4,1-1   v-1.4c0-4.5-3.3-8.5-8.4-8.5c-5.7,0-9.2,4.7-9.2,10.4c0,6.3,3.6,10.5,9.2,10.5c3.8,0,7-2.2,8.2-5.6   C123.4,44.1,123.1,43.6,122.5,43.6z M114.9,32c3.4,0,5.7,2.5,5.6,5.8h-11.6C109.2,34.9,111.3,32,114.9,32z" fill="#000000">
</path>
<path class="st0" d="M127.6,39.8c0-6,4.2-10.4,9.2-10.4c5,0,9.2,4.4,9.2,10.4c0,6.1-3.9,10.5-9.2,10.5   C131.6,50.2,127.6,45.9,127.6,39.8z M130.6,39.8c0,4.5,2.6,7.7,6.2,7.7c3.6,0,6.3-3.1,6.3-7.7c0-4.4-2.6-7.6-6.3-7.6   C133.2,32.2,130.6,35.4,130.6,39.8z" fill="#000000">
</path>
<path class="st1" d="M159.6,29.4c-2.7,0-4.9,1.3-6.1,2.6l-0.1-1.4c0-0.5-0.4-0.9-0.9-0.9h-1.1c-0.5,0-0.9,0.4-0.9,0.9V49   c0,0.5,0.4,0.9,0.9,0.9h1.1c0.5,0,1-0.4,1-0.9V36.2c0.7-1.9,3-4,5.7-4c3.3,0,5.2,1.9,5.2,5.2V49c0,0.5,0.4,0.9,0.9,0.9h1.1   c0.5,0,0.9-0.4,0.9-0.9V37.3C167.4,32.5,164.3,29.4,159.6,29.4z" fill="#000000">
</path>
<path class="st0" d="M171.9,39.8c0-6,4.2-10.4,9.2-10.4c5,0,9.2,4.4,9.2,10.4c0,6.1-3.9,10.5-9.2,10.5   C175.8,50.2,171.9,45.9,171.9,39.8z M174.8,39.8c0,4.5,2.6,7.7,6.2,7.7c3.6,0,6.3-3.1,6.3-7.7c0-4.4-2.6-7.6-6.3-7.6   C177.5,32.2,174.8,35.4,174.8,39.8z" fill="#000000">
</path>
<path class="st1" d="M202.8,29.4c-1.6,0-3.6,0.6-4.9,2.2l-0.1-1c-0.1-0.5-0.4-0.9-0.9-0.9h-1.1c-0.5,0-0.9,0.4-0.9,0.9V49   c0,0.5,0.4,0.9,0.9,0.9h1.2c0.5,0,0.9-0.4,0.9-0.9V36.2c0.4-2.2,2.1-4,4.3-4c2.3,0,4,1.7,4,3.9v13c0,0.5,0.4,0.9,0.9,0.9h1   c0.5,0,0.9-0.4,0.9-0.9V35.9c0.3-2.3,2.4-3.8,4.2-3.8c2.5,0,3.9,1.5,3.9,3.9v13c0,0.5,0.4,0.9,0.9,0.9h1.2c0.5,0,0.9-0.4,0.9-0.9   V36c0-3.9-2.8-6.6-6.7-6.6c-2,0-4.1,1.1-5.4,2.7C207.1,30.6,205,29.4,202.8,29.4z" fill="#000000">
</path>
<path class="st1" d="M223.6,30.8c-0.2-0.5,0.1-1.1,0.7-1.1h1.4c0.6,0,1,0.3,1.2,0.7l6.3,14.9l6.4-14.9c0.2-0.4,0.6-0.7,1.2-0.7h1.4   c0.6,0,0.9,0.6,0.6,1.1L232.1,55c-0.9,1.9-2.3,3-4.6,3c-0.6,0-1.2,0-2-0.2c-0.5-0.1-0.7-0.6-0.6-1.1l0.2-1c0.1-0.5,0.5-0.7,1.1-0.6   c0.4,0.1,1,0.2,1.2,0.2c1,0,1.6-0.4,1.9-1.1l2.2-5.3L223.6,30.8z" fill="#000000">
</path>
<path class="st1" d="M126.8,77.4V65.8h-1.9v11.6H126.8z" fill="#000000">
</path>
<path class="st0" d="M124,77.4h-1.6c-0.2,0-0.3,0-0.4-0.1c-0.1-0.1-0.2-0.2-0.3-0.3l-0.8-2.3h-4.7l-0.8,2.3c0,0.1-0.1,0.2-0.2,0.3   c-0.1,0.1-0.3,0.1-0.4,0.1H113l4.4-11.3h2.1L124,77.4z M120.3,73.1l-1.4-3.8c-0.1-0.2-0.1-0.4-0.2-0.6c-0.1-0.2-0.1-0.5-0.2-0.7   c-0.1,0.3-0.1,0.5-0.2,0.7c-0.1,0.2-0.1,0.4-0.2,0.6l-1.4,3.7H120.3z" fill="#000000">
</path>
<path class="st0" d="M94.9,69.6c-0.5,0.2-1,0.5-1.4,0.9l0.2,0.4c0,0.1,0.1,0.1,0.2,0.2c0.1,0,0.1,0.1,0.2,0.1c0.1,0,0.2,0,0.4-0.1   c0.1-0.1,0.3-0.2,0.4-0.3c0.2-0.1,0.4-0.2,0.6-0.3c0.2-0.1,0.5-0.1,0.9-0.1c0.5,0,0.9,0.2,1.2,0.5c0.3,0.3,0.4,0.8,0.4,1.4v0.6   c-0.9,0-1.7,0.1-2.3,0.2c-0.6,0.1-1.1,0.3-1.5,0.5c-0.4,0.2-0.7,0.5-0.8,0.8c-0.2,0.3-0.3,0.6-0.3,0.9c0,0.4,0.1,0.7,0.2,0.9   c0.1,0.3,0.3,0.5,0.5,0.6c0.2,0.2,0.4,0.3,0.7,0.4c0.3,0.1,0.6,0.1,0.9,0.1c0.3,0,0.6,0,0.8-0.1c0.2-0.1,0.5-0.1,0.7-0.2   c0.2-0.1,0.4-0.2,0.6-0.4c0.2-0.2,0.4-0.3,0.6-0.5l0.2,0.7c0,0.1,0.1,0.2,0.2,0.3c0.1,0,0.2,0.1,0.3,0.1h0.6v-5.1   c0-0.4-0.1-0.8-0.2-1.2c-0.1-0.4-0.3-0.7-0.5-0.9c-0.2-0.3-0.5-0.5-0.9-0.6c-0.3-0.1-0.7-0.2-1.2-0.2C96,69.3,95.5,69.4,94.9,69.6z    M96.4,74c0.5-0.1,1-0.1,1.6-0.2v1.6c-0.2,0.2-0.3,0.3-0.5,0.4c-0.2,0.1-0.3,0.2-0.5,0.3c-0.2,0.1-0.4,0.2-0.6,0.2   c-0.2,0-0.4,0.1-0.7,0.1c-0.2,0-0.4,0-0.5-0.1c-0.2,0-0.3-0.1-0.4-0.2c-0.1-0.1-0.2-0.2-0.3-0.4c-0.1-0.2-0.1-0.3-0.1-0.5   c0-0.2,0.1-0.4,0.2-0.6c0.1-0.2,0.3-0.3,0.6-0.5C95.6,74.2,95.9,74.1,96.4,74z" fill="#000000">
</path>
<path class="st1" d="M103.4,70.1c-0.2,0.2-0.4,0.3-0.5,0.5l-0.1-0.9c0-0.2-0.2-0.3-0.4-0.3h-0.8v7.9h1.4v-5.8   c0.3-0.3,0.6-0.6,1-0.8c0.4-0.2,0.7-0.3,1.2-0.3c0.6,0,1,0.2,1.2,0.5c0.3,0.3,0.4,0.8,0.4,1.4v5h1.4v-5c0-0.4-0.1-0.9-0.2-1.2   s-0.3-0.7-0.5-0.9c-0.2-0.3-0.5-0.5-0.8-0.6c-0.3-0.1-0.7-0.2-1.1-0.2c-0.3,0-0.5,0-0.8,0.1c-0.2,0.1-0.5,0.1-0.7,0.3   C103.8,69.8,103.6,69.9,103.4,70.1z" fill="#000000">
</path>
<path class="st1" d="M131.4,77.5c-0.7,0-1.2-0.2-1.6-0.6c-0.4-0.4-0.6-0.9-0.6-1.6v-4.5h-0.8c-0.1,0-0.2,0-0.3-0.1   c-0.1-0.1-0.1-0.2-0.1-0.3v-0.8l1.3-0.2l0.4-2.2c0-0.1,0.1-0.2,0.1-0.2c0.1-0.1,0.2-0.1,0.3-0.1h1v2.5h2.1v1.4h-2.1v4.3   c0,0.2,0.1,0.4,0.2,0.6c0.1,0.1,0.3,0.2,0.5,0.2c0.1,0,0.2,0,0.3,0c0.1,0,0.2-0.1,0.2-0.1c0.1,0,0.1-0.1,0.2-0.1c0,0,0.1,0,0.1,0   c0.1,0,0.1,0,0.1,0c0,0,0.1,0.1,0.1,0.1l0.6,0.9c-0.3,0.2-0.6,0.4-1,0.5C132.2,77.4,131.8,77.5,131.4,77.5z" fill="#000000">
</path>
<path class="st1" d="M141.5,77.4v-8h-1.9v5.8c-0.3,0.3-0.5,0.5-0.8,0.6c-0.3,0.1-0.6,0.2-0.9,0.2c-0.5,0-0.8-0.1-1-0.4   c-0.2-0.3-0.3-0.7-0.3-1.1v-5.1h-1.9v5.1c0,0.4,0.1,0.9,0.2,1.2c0.1,0.4,0.3,0.7,0.5,1c0.2,0.3,0.5,0.5,0.8,0.6   c0.3,0.1,0.7,0.2,1.2,0.2c0.5,0,1-0.1,1.4-0.3c0.4-0.2,0.8-0.5,1.1-0.8l0.1,0.6c0.1,0.2,0.2,0.4,0.5,0.4H141.5z" fill="#000000">
</path>
<path class="st1" d="M148.3,70.9c-0.1,0.1-0.1,0.1-0.2,0.2c-0.1,0-0.1,0-0.2,0c-0.1,0-0.2,0-0.3-0.1c-0.1-0.1-0.2-0.1-0.4-0.2   c-0.1-0.1-0.3-0.1-0.5-0.2c-0.2-0.1-0.4-0.1-0.6-0.1c-0.4,0-0.7,0.1-0.9,0.2c-0.2,0.2-0.3,0.4-0.3,0.6c0,0.2,0.1,0.3,0.2,0.4   c0.1,0.1,0.3,0.2,0.4,0.3c0.2,0.1,0.4,0.2,0.6,0.2c0.2,0.1,0.5,0.1,0.7,0.2c0.2,0.1,0.5,0.2,0.7,0.3c0.2,0.1,0.4,0.2,0.6,0.4   c0.2,0.2,0.3,0.4,0.4,0.6c0.1,0.2,0.2,0.5,0.2,0.8c0,0.4-0.1,0.7-0.2,1.1c-0.1,0.3-0.3,0.6-0.6,0.8c-0.3,0.2-0.6,0.4-1,0.6   c-0.4,0.1-0.9,0.2-1.4,0.2c-0.3,0-0.5,0-0.8-0.1c-0.3,0-0.5-0.1-0.8-0.2c-0.2-0.1-0.5-0.2-0.7-0.3c-0.2-0.1-0.4-0.2-0.5-0.4   l0.4-0.7c0.1-0.1,0.1-0.2,0.2-0.2c0.1,0,0.2-0.1,0.3-0.1c0.1,0,0.2,0,0.3,0.1c0.1,0.1,0.2,0.1,0.4,0.2s0.3,0.2,0.5,0.2   c0.2,0.1,0.4,0.1,0.7,0.1c0.2,0,0.4,0,0.6-0.1c0.2-0.1,0.3-0.1,0.4-0.2c0.1-0.1,0.2-0.2,0.2-0.3c0.1-0.1,0.1-0.2,0.1-0.4   c0-0.2-0.1-0.3-0.2-0.5c-0.1-0.1-0.3-0.2-0.4-0.3c-0.2-0.1-0.4-0.2-0.6-0.2c-0.2-0.1-0.5-0.2-0.7-0.2c-0.2-0.1-0.5-0.2-0.7-0.3   c-0.2-0.1-0.4-0.3-0.6-0.4c-0.2-0.2-0.3-0.4-0.4-0.6c-0.1-0.2-0.2-0.6-0.2-0.9c0-0.3,0.1-0.6,0.2-0.9c0.1-0.3,0.3-0.6,0.6-0.8   c0.3-0.2,0.6-0.4,0.9-0.5c0.4-0.1,0.8-0.2,1.3-0.2c0.6,0,1.1,0.1,1.5,0.3c0.5,0.2,0.8,0.4,1.1,0.7L148.3,70.9z" fill="#000000">
</path>
<path class="st1" d="M163.7,76.3v-4.6h-3.7v1.2c0,0.1,0,0.2,0.1,0.3c0.1,0.1,0.2,0.1,0.3,0.1h1.4v2c-0.3,0.2-0.6,0.3-1,0.4   c-0.3,0.1-0.7,0.1-1.1,0.1c-0.6,0-1.1-0.1-1.6-0.3c-0.5-0.2-0.9-0.5-1.2-0.8c-0.3-0.4-0.6-0.8-0.8-1.3c-0.2-0.5-0.3-1.1-0.3-1.7   c0-0.6,0.1-1.2,0.3-1.6c0.2-0.5,0.4-0.9,0.7-1.3c0.3-0.3,0.7-0.6,1.1-0.8c0.5-0.2,1-0.3,1.5-0.3c0.3,0,0.6,0,0.9,0.1   c0.3,0,0.5,0.1,0.7,0.2c0.2,0.1,0.4,0.2,0.6,0.3l0.5,0.3c0.2,0.1,0.3,0.1,0.5,0.1c0.2,0,0.3-0.1,0.4-0.3l0.6-1   c-0.2-0.2-0.5-0.4-0.8-0.6c-0.3-0.2-0.6-0.3-0.9-0.5c-0.3-0.1-0.7-0.2-1.1-0.3c-0.4-0.1-0.8-0.1-1.3-0.1c-0.9,0-1.7,0.1-2.4,0.4   c-0.7,0.3-1.3,0.7-1.9,1.2c-0.5,0.5-0.9,1.1-1.2,1.8c-0.3,0.7-0.4,1.5-0.4,2.3c0,0.8,0.1,1.6,0.4,2.3c0.3,0.7,0.7,1.3,1.2,1.8   c0.5,0.5,1.2,0.9,1.9,1.2c0.7,0.3,1.6,0.4,2.5,0.4c0.7,0,1.4-0.1,2.1-0.3C162.5,77,163.1,76.7,163.7,76.3z" fill="#000000">
</path>
<path class="st1" d="M167.1,70.8c0.2-0.5,0.5-0.9,0.9-1.1c0.3-0.3,0.7-0.4,1.2-0.4c0.4,0,0.7,0.1,0.9,0.2l-0.1,1.4   c0,0.1-0.1,0.2-0.1,0.2c0,0-0.1,0.1-0.2,0.1c-0.1,0-0.2,0-0.4,0c-0.2,0-0.3,0-0.4,0c-0.2,0-0.4,0-0.6,0.1c-0.2,0.1-0.3,0.2-0.5,0.3   c-0.1,0.1-0.2,0.3-0.4,0.4c-0.1,0.2-0.2,0.4-0.3,0.6v4.9h-1.9v-8h1.1c0.2,0,0.3,0,0.4,0.1c0.1,0.1,0.1,0.2,0.2,0.4L167.1,70.8z" fill="#000000">
</path>
<path class="st0" d="M176,69.5c-0.5-0.2-1-0.3-1.6-0.3c-0.6,0-1.1,0.1-1.6,0.3c-0.5,0.2-0.9,0.5-1.3,0.8c-0.3,0.4-0.6,0.8-0.8,1.3   c-0.2,0.5-0.3,1.1-0.3,1.7c0,0.6,0.1,1.2,0.3,1.7c0.2,0.5,0.5,0.9,0.8,1.3c0.3,0.4,0.8,0.6,1.3,0.8c0.5,0.2,1,0.3,1.6,0.3   c0.6,0,1.1-0.1,1.6-0.3c0.5-0.2,0.9-0.5,1.2-0.8c0.3-0.4,0.6-0.8,0.8-1.3c0.2-0.5,0.3-1.1,0.3-1.7c0-0.6-0.1-1.2-0.3-1.7   c-0.2-0.5-0.5-0.9-0.8-1.3C176.9,70,176.5,69.7,176,69.5z M175.9,75.3c-0.3,0.4-0.8,0.7-1.5,0.7c-0.7,0-1.2-0.2-1.5-0.7   c-0.3-0.5-0.5-1.1-0.5-2s0.2-1.5,0.5-2c0.3-0.5,0.8-0.7,1.5-0.7c0.7,0,1.2,0.2,1.5,0.7c0.3,0.5,0.5,1.1,0.5,2   S176.2,74.9,175.9,75.3z" fill="#000000">
</path>
<path class="st1" d="M186.7,77.4h-1.2c-0.3,0-0.4-0.1-0.5-0.4l-0.1-0.6c-0.3,0.3-0.7,0.6-1.1,0.8c-0.4,0.2-0.9,0.3-1.4,0.3   c-0.4,0-0.8-0.1-1.2-0.2c-0.3-0.2-0.6-0.4-0.8-0.6c-0.2-0.3-0.4-0.6-0.5-1c-0.1-0.4-0.2-0.8-0.2-1.2v-5.1h1.9v5.1   c0,0.5,0.1,0.9,0.3,1.1c0.2,0.3,0.6,0.4,1,0.4c0.3,0,0.6-0.1,0.9-0.2c0.3-0.2,0.6-0.4,0.8-0.6v-5.8h1.9V77.4z" fill="#000000">
</path>
<path class="st0" d="M191.6,69.6c-0.4,0.2-0.8,0.5-1.1,0.9l-0.2-0.7c-0.1-0.2-0.2-0.4-0.5-0.4h-1.2V80h1.9v-3.3   c0.2,0.2,0.5,0.4,0.9,0.6c0.3,0.1,0.7,0.2,1.1,0.2c0.5,0,1-0.1,1.4-0.3c0.4-0.2,0.8-0.5,1.1-0.9c0.3-0.4,0.5-0.8,0.7-1.3   c0.2-0.5,0.2-1.1,0.2-1.7c0-0.7-0.1-1.2-0.2-1.7c-0.1-0.5-0.3-0.9-0.6-1.3c-0.3-0.3-0.6-0.6-0.9-0.8c-0.4-0.2-0.8-0.3-1.2-0.3   C192.5,69.2,192,69.3,191.6,69.6z M191.3,75.9c-0.3-0.1-0.5-0.3-0.7-0.6v-3.6c0.2-0.3,0.5-0.5,0.8-0.7c0.3-0.2,0.6-0.3,1-0.3   c0.3,0,0.5,0,0.7,0.1c0.2,0.1,0.4,0.2,0.5,0.4c0.1,0.2,0.2,0.5,0.3,0.8c0.1,0.3,0.1,0.7,0.1,1.2c0,0.5,0,0.9-0.1,1.2   c-0.1,0.3-0.2,0.6-0.4,0.8c-0.2,0.2-0.4,0.4-0.6,0.5c-0.2,0.1-0.5,0.2-0.8,0.2C191.8,76,191.5,76,191.3,75.9z" fill="#000000">
</path>
<path class="st0" d="M203,70.6c0.3-0.4,0.7-0.7,1.1-0.9c0.4-0.2,0.9-0.3,1.5-0.3c0.5,0,0.9,0.1,1.2,0.3c0.4,0.2,0.7,0.4,1,0.8   c0.3,0.3,0.5,0.7,0.6,1.2c0.1,0.5,0.2,1,0.2,1.6c0,0.6-0.1,1.2-0.2,1.7c-0.2,0.5-0.4,1-0.7,1.4c-0.3,0.4-0.6,0.7-1.1,0.9   c-0.4,0.2-0.9,0.3-1.4,0.3c-0.5,0-1-0.1-1.3-0.3c-0.4-0.2-0.7-0.5-0.9-0.8l-0.1,0.7c0,0.2-0.2,0.3-0.4,0.3h-0.9V65.9h1.4V70.6z    M203,75.5c0.3,0.3,0.5,0.6,0.8,0.7c0.3,0.1,0.6,0.2,1,0.2c0.7,0,1.3-0.3,1.7-0.8c0.4-0.5,0.6-1.3,0.6-2.4c0-1-0.2-1.7-0.5-2.1   c-0.3-0.5-0.8-0.7-1.5-0.7c-0.5,0-0.8,0.1-1.2,0.3c-0.3,0.2-0.6,0.5-0.9,0.9V75.5z" fill="#000000">
</path>
<path class="st1" d="M216.9,77.4v-7.9h-1.4v5.8c-0.3,0.3-0.6,0.6-1,0.8c-0.4,0.2-0.7,0.3-1.1,0.3c-0.6,0-1-0.2-1.3-0.5   c-0.3-0.3-0.4-0.8-0.4-1.4v-5h-1.4v5c0,0.4,0.1,0.9,0.2,1.2c0.1,0.4,0.3,0.7,0.5,0.9c0.2,0.3,0.5,0.5,0.8,0.6   c0.3,0.1,0.7,0.2,1.1,0.2c0.6,0,1-0.1,1.5-0.3c0.4-0.2,0.8-0.5,1.2-0.9l0.1,0.9c0.1,0.2,0.2,0.3,0.4,0.3H216.9z" fill="#000000">
</path>
<path class="st1" d="M223.7,70.8c-0.1,0.1-0.2,0.2-0.3,0.2c-0.1,0-0.2,0-0.3-0.1c-0.1-0.1-0.2-0.1-0.4-0.2   c-0.1-0.1-0.3-0.1-0.5-0.2c-0.2-0.1-0.4-0.1-0.7-0.1c-0.2,0-0.4,0-0.6,0.1c-0.2,0.1-0.3,0.1-0.5,0.2c-0.1,0.1-0.2,0.2-0.3,0.4   c-0.1,0.1-0.1,0.3-0.1,0.4c0,0.2,0.1,0.4,0.2,0.5c0.1,0.1,0.3,0.3,0.5,0.4c0.2,0.1,0.4,0.2,0.7,0.3c0.2,0.1,0.5,0.2,0.7,0.2   c0.3,0.1,0.5,0.2,0.8,0.3c0.2,0.1,0.5,0.2,0.7,0.4c0.2,0.2,0.3,0.3,0.5,0.6c0.1,0.2,0.2,0.5,0.2,0.8c0,0.4-0.1,0.7-0.2,1   c-0.1,0.3-0.3,0.6-0.6,0.8c-0.3,0.2-0.6,0.4-0.9,0.5c-0.4,0.1-0.8,0.2-1.3,0.2c-0.6,0-1.1-0.1-1.5-0.3c-0.4-0.2-0.8-0.4-1.1-0.7   l0.3-0.5c0-0.1,0.1-0.1,0.1-0.2c0.1,0,0.1-0.1,0.2-0.1c0.1,0,0.2,0,0.3,0.1c0.1,0.1,0.2,0.2,0.4,0.2c0.2,0.1,0.3,0.2,0.5,0.2   c0.2,0.1,0.5,0.1,0.8,0.1c0.3,0,0.5,0,0.7-0.1c0.2-0.1,0.4-0.2,0.5-0.3c0.1-0.1,0.2-0.3,0.3-0.4c0.1-0.2,0.1-0.3,0.1-0.5   c0-0.2-0.1-0.4-0.2-0.5c-0.1-0.1-0.3-0.3-0.5-0.4c-0.2-0.1-0.4-0.2-0.7-0.3l-0.8-0.2c-0.3-0.1-0.5-0.2-0.8-0.3   c-0.2-0.1-0.5-0.2-0.7-0.4c-0.2-0.2-0.3-0.4-0.5-0.6c-0.1-0.2-0.2-0.5-0.2-0.9c0-0.3,0.1-0.6,0.2-0.9c0.1-0.3,0.3-0.5,0.5-0.7   c0.2-0.2,0.5-0.4,0.9-0.5c0.3-0.1,0.7-0.2,1.2-0.2c0.5,0,1,0.1,1.4,0.2c0.4,0.2,0.8,0.4,1.1,0.7L223.7,70.8z" fill="#000000">
</path>
<path class="st1" d="M227.3,77.4v-7.9h-1.4v7.9H227.3z" fill="#000000">
</path>
<path class="st1" d="M227.5,67.4c0.1-0.1,0.1-0.2,0.1-0.4c0-0.1,0-0.3-0.1-0.4c-0.1-0.1-0.1-0.2-0.2-0.3c-0.1-0.1-0.2-0.2-0.3-0.2   c-0.1-0.1-0.2-0.1-0.4-0.1c-0.1,0-0.3,0-0.4,0.1c-0.1,0.1-0.2,0.1-0.3,0.2c-0.1,0.1-0.2,0.2-0.2,0.3c-0.1,0.1-0.1,0.2-0.1,0.4   c0,0.1,0,0.3,0.1,0.4c0.1,0.1,0.1,0.2,0.2,0.3c0.1,0.1,0.2,0.2,0.3,0.2c0.1,0.1,0.2,0.1,0.4,0.1c0.1,0,0.3,0,0.4-0.1   c0.1-0.1,0.2-0.1,0.3-0.2C227.4,67.6,227.5,67.5,227.5,67.4z" fill="#000000">
</path>
<path class="st1" d="M230.9,70.6c0.2-0.2,0.4-0.4,0.5-0.5c0.2-0.2,0.4-0.3,0.6-0.4c0.2-0.1,0.4-0.2,0.7-0.3   c0.2-0.1,0.5-0.1,0.8-0.1c0.4,0,0.8,0.1,1.1,0.2c0.3,0.1,0.6,0.3,0.8,0.6c0.2,0.3,0.4,0.6,0.5,0.9s0.2,0.8,0.2,1.2v5h-1.4v-5   c0-0.6-0.1-1.1-0.4-1.4c-0.3-0.3-0.7-0.5-1.2-0.5c-0.4,0-0.8,0.1-1.2,0.3c-0.4,0.2-0.7,0.5-1,0.8v5.8h-1.4v-7.9h0.8   c0.2,0,0.3,0.1,0.4,0.3L230.9,70.6z" fill="#000000">
</path>
<path class="st0" d="M244.1,76.8c0.2-0.2,0.4-0.3,0.6-0.5l-0.4-0.5c-0.1-0.1-0.2-0.1-0.3-0.1c-0.1,0-0.2,0-0.3,0.1   c-0.1,0.1-0.3,0.2-0.5,0.3c-0.2,0.1-0.4,0.2-0.7,0.3c-0.2,0.1-0.5,0.1-0.9,0.1c-0.4,0-0.7-0.1-1-0.2c-0.3-0.1-0.6-0.3-0.8-0.6   c-0.2-0.2-0.4-0.6-0.5-0.9c-0.1-0.4-0.2-0.8-0.2-1.3h5.3c0.1,0,0.2,0,0.3-0.1c0-0.1,0.1-0.2,0.1-0.4c0-0.6-0.1-1.1-0.2-1.5   c-0.2-0.4-0.4-0.8-0.7-1.1c-0.3-0.3-0.6-0.5-1-0.7c-0.4-0.2-0.8-0.2-1.3-0.2c-0.6,0-1.1,0.1-1.5,0.3c-0.5,0.2-0.8,0.5-1.2,0.8   c-0.3,0.3-0.6,0.8-0.7,1.2c-0.2,0.5-0.2,1-0.2,1.5c0,0.7,0.1,1.3,0.3,1.8c0.2,0.5,0.4,1,0.8,1.3c0.3,0.4,0.7,0.6,1.2,0.8   c0.5,0.2,1,0.3,1.5,0.3c0.3,0,0.6,0,0.9-0.1c0.3,0,0.6-0.1,0.8-0.2C243.6,77.1,243.9,77,244.1,76.8z M243.5,71.7   c0.1,0.3,0.1,0.6,0.1,0.9h-4.3c0.1-0.7,0.3-1.2,0.7-1.6c0.4-0.4,0.9-0.6,1.6-0.6c0.3,0,0.6,0.1,0.9,0.2c0.2,0.1,0.5,0.3,0.6,0.5   C243.2,71.2,243.4,71.4,243.5,71.7z" fill="#000000">
</path>
<path class="st1" d="M251.2,70.8c-0.1,0.1-0.2,0.2-0.3,0.2c-0.1,0-0.2,0-0.3-0.1c-0.1-0.1-0.2-0.1-0.4-0.2   c-0.1-0.1-0.3-0.1-0.5-0.2c-0.2-0.1-0.4-0.1-0.7-0.1c-0.2,0-0.4,0-0.6,0.1c-0.2,0.1-0.3,0.1-0.5,0.2c-0.1,0.1-0.2,0.2-0.3,0.4   c-0.1,0.1-0.1,0.3-0.1,0.4c0,0.2,0.1,0.4,0.2,0.5c0.1,0.1,0.3,0.3,0.5,0.4c0.2,0.1,0.4,0.2,0.7,0.3c0.2,0.1,0.5,0.2,0.7,0.2   c0.3,0.1,0.5,0.2,0.8,0.3c0.2,0.1,0.5,0.2,0.7,0.4c0.2,0.2,0.3,0.3,0.5,0.6c0.1,0.2,0.2,0.5,0.2,0.8c0,0.4-0.1,0.7-0.2,1   c-0.1,0.3-0.3,0.6-0.6,0.8c-0.3,0.2-0.6,0.4-0.9,0.5c-0.4,0.1-0.8,0.2-1.3,0.2c-0.6,0-1.1-0.1-1.5-0.3c-0.4-0.2-0.8-0.4-1.1-0.7   l0.3-0.5c0-0.1,0.1-0.1,0.1-0.2c0.1,0,0.1-0.1,0.2-0.1c0.1,0,0.2,0,0.3,0.1c0.1,0.1,0.2,0.2,0.4,0.2c0.2,0.1,0.3,0.2,0.5,0.2   c0.2,0.1,0.5,0.1,0.8,0.1c0.3,0,0.5,0,0.7-0.1c0.2-0.1,0.4-0.2,0.5-0.3c0.1-0.1,0.2-0.3,0.3-0.4c0.1-0.2,0.1-0.3,0.1-0.5   c0-0.2-0.1-0.4-0.2-0.5c-0.1-0.1-0.3-0.3-0.5-0.4c-0.2-0.1-0.4-0.2-0.7-0.3l-0.8-0.2c-0.3-0.1-0.5-0.2-0.8-0.3   c-0.2-0.1-0.5-0.2-0.7-0.4c-0.2-0.2-0.3-0.4-0.5-0.6c-0.1-0.2-0.2-0.5-0.2-0.9c0-0.3,0.1-0.6,0.2-0.9c0.1-0.3,0.3-0.5,0.5-0.7   c0.2-0.2,0.5-0.4,0.9-0.5c0.3-0.1,0.7-0.2,1.2-0.2c0.5,0,1,0.1,1.4,0.2c0.4,0.2,0.8,0.4,1.1,0.7L251.2,70.8z" fill="#000000">
</path>
<path class="st1" d="M257.6,71c0.1,0,0.2-0.1,0.3-0.2l0.3-0.5c-0.3-0.3-0.7-0.5-1.1-0.7c-0.4-0.2-0.9-0.2-1.4-0.2   c-0.4,0-0.8,0.1-1.2,0.2c-0.3,0.1-0.6,0.3-0.9,0.5c-0.2,0.2-0.4,0.5-0.5,0.7c-0.1,0.3-0.2,0.6-0.2,0.9c0,0.3,0.1,0.6,0.2,0.9   c0.1,0.2,0.3,0.4,0.5,0.6c0.2,0.2,0.4,0.3,0.7,0.4c0.2,0.1,0.5,0.2,0.8,0.3l0.8,0.2c0.2,0.1,0.5,0.2,0.7,0.3   c0.2,0.1,0.3,0.2,0.5,0.4c0.1,0.1,0.2,0.3,0.2,0.5c0,0.2,0,0.3-0.1,0.5c-0.1,0.2-0.2,0.3-0.3,0.4c-0.1,0.1-0.3,0.2-0.5,0.3   c-0.2,0.1-0.4,0.1-0.7,0.1c-0.3,0-0.6,0-0.8-0.1c-0.2-0.1-0.4-0.2-0.5-0.2c-0.1-0.1-0.3-0.2-0.4-0.2c-0.1-0.1-0.2-0.1-0.3-0.1   c-0.1,0-0.2,0-0.2,0.1c-0.1,0-0.1,0.1-0.1,0.2l-0.3,0.5c0.3,0.3,0.7,0.5,1.1,0.7c0.4,0.2,0.9,0.3,1.5,0.3c0.5,0,0.9-0.1,1.3-0.2   c0.4-0.1,0.7-0.3,0.9-0.5c0.3-0.2,0.4-0.5,0.6-0.8c0.1-0.3,0.2-0.7,0.2-1c0-0.3-0.1-0.6-0.2-0.8c-0.1-0.2-0.3-0.4-0.5-0.6   c-0.2-0.2-0.4-0.3-0.7-0.4c-0.2-0.1-0.5-0.2-0.8-0.3c-0.3-0.1-0.5-0.2-0.7-0.2c-0.2-0.1-0.5-0.2-0.7-0.3c-0.2-0.1-0.3-0.2-0.5-0.4   c-0.1-0.1-0.2-0.3-0.2-0.5c0-0.2,0-0.3,0.1-0.4c0.1-0.1,0.2-0.3,0.3-0.4c0.1-0.1,0.3-0.2,0.5-0.2c0.2-0.1,0.4-0.1,0.6-0.1   c0.3,0,0.5,0,0.7,0.1c0.2,0.1,0.4,0.1,0.5,0.2c0.1,0.1,0.3,0.1,0.4,0.2C257.5,70.9,257.6,71,257.6,71z" fill="#000000">
</path>
</g>
</svg>