<?xml version="1.0" encoding="utf-8"?>
<svg color="#000000" focusable="false" id="Layer_1" style="enable-background:new 0 0 573.4 120;" version="1.1" viewBox="0 0 573.4 120" x="0px" xml:space="preserve" xmlns="http://www.w3.org/2000/svg" xmlns:graph="ns_graphs;" xmlns:i="ns_ai;" xmlns:x="ns_extend;" xmlns:xlink="http://www.w3.org/1999/xlink" y="0px">
<style type="text/css">
  .st0{fill:#000000;}
 </style>
<metadata>
<sfw xmlns="ns_sfw;">
<slices>
</slices>
<sliceSourceBounds bottomLeftOrigin="true" height="120" width="573.4" x="-453.6" y="0">
</sliceSourceBounds>
</sfw>
</metadata>
<g>
<path class="st0" d="M438.1,44.5h23.3l6.8,22.1c2.2,7.3,6,21.1,6,21.1c0,0.1,0.1,0.1,0.2,0.1c0,0,0.1-0.1,0.1-0.1   c0,0,3.9-14,6.1-21.1l7.1-22.1H505l7,22.1c2.3,7.6,6,21.1,6,21.1c0,0.1,0.1,0.1,0.2,0.1c0,0,0.1-0.1,0.1-0.1c0,0,3.8-13.7,6-21.1   l6.8-22.1h21.7l-23.5,73H508l-5.8-18.3c-2.2-7.2-6.2-21.2-6.2-21.2c0-0.1-0.1-0.1-0.2-0.1c0,0-0.1,0.1-0.1,0.1   c0,0-3.9,13.7-6.3,21.1l-5.9,18.5h-21.7L438.1,44.5z M281,5.9h23.6v111.7H281V5.9z M322.1,5.9h23.6v111.7h-23.6V5.9z M414.2,81.3   c0-10.9-7.8-18.3-16.9-18.3c-9.4,0-17.2,7.4-17.2,18.3c0,10.9,7.8,18.3,17.2,18.3C406.4,99.6,414.2,92.2,414.2,81.3 M357.4,81.3   c0-22.2,17.9-38.6,39.8-38.6c21.7,0,39.6,16.4,39.6,38.6c0,22.3-17.9,38.7-39.6,38.7C375.4,120,357.4,103.6,357.4,81.3 M144.4,16.3   v21.5h41.7c0.2,0,0.3,0.2,0.2,0.3l-41.9,71.2c-1,1.9-1.3,2.2-1.3,4.1v4.2h81.3V96.1h-45.1c-0.1,0-0.2-0.1-0.2-0.2   c0-0.1,0-0.1,0-0.1l42.4-72.1c0.3-0.7,0.7-1.2,0.7-2.9v-4.5H144.4z M239.5,44.5h23.6v73h-23.6L239.5,44.5z M251.3,7.9   c7.4,0,13.4,5.9,13.4,13.3s-6.1,13.3-13.4,13.3c-7.4,0-13.4-5.9-13.4-13.3S244,7.9,251.3,7.9" fill="#000000">
</path>
<path class="st0" d="M72.7,31.8c0.5-0.1,0.8,0.1,1.1,0.4c1.8,2.1,7.8,9.3,9.4,11.3c0.2,0.3,0.2,0.7-0.1,0.9c0,0-0.1,0.1-0.1,0.1   C71,54,60,64.8,50.2,76.6c-0.1,0.2,0,0.2,0.1,0.1c13-5.6,43.4-14.5,57.1-17V42.4L53.8,0L0.1,42.4v19C16.7,51.5,55.2,36.2,72.7,31.8   L72.7,31.8z" fill="#000000">
</path>
<path class="st0" d="M29,104.8c-0.4,0.2-0.9,0.1-1.1-0.2l-10-11.9c-0.3-0.3-0.3-0.5,0.1-1c7.7-11.3,23.5-29,33.6-36.5   c0.2-0.2,0.2-0.3-0.1-0.2C40.9,58.4,11.1,71.2,0,77.5V118h107.5V79C92.8,81.5,48.9,94.5,29,104.8z" fill="#000000">
</path>
<path class="st0" d="M568.6,34.1c0-2.1-1.5-3.6-3.5-3.6h-3.8v10.2h1.7v-3h1.7l1.9,3.1h1.9l-2-3.3C567.7,36.9,568.6,35.7,568.6,34.1   z M565,36.2h-2V32h2c1.1,0,1.9,0.9,1.9,2.1S566.1,36.2,565,36.2z" fill="#000000">
</path>
<path class="st0" d="M564.5,27c-4.9,0-8.8,3.9-8.8,8.8c0,4.9,3.9,8.8,8.8,8.8c4.9,0,8.8-3.9,8.8-8.8c0,0,0,0,0,0   C573.3,30.9,569.4,27,564.5,27z M564.5,42.9c-3.9,0-7.1-3.2-7.1-7.1s3.2-7.1,7.1-7.1c3.9,0,7.1,3.2,7.1,7.1   C571.7,39.7,568.5,42.9,564.5,42.9L564.5,42.9L564.5,42.9z" fill="#000000">
</path>
</g>
</svg>